<svg width="1013" height="268" viewBox="0 0 1013 268" fill="none" xmlns="http://www.w3.org/2000/svg">
<path fill-rule="evenodd" clip-rule="evenodd" d="M133.692 159.348C118.315 147.184 107.94 134.74 102.504 122.667H111.209C122.159 122.667 134.043 130.292 134.281 152.417C134.309 154.775 134.107 157.096 133.692 159.348ZM111.209 181.557L59.6068 182.779V122.667H70.9568C78.2104 143.901 95.3412 162.897 120.111 179.355C117.453 180.701 114.464 181.48 111.209 181.557ZM122.749 86.8479H0V267.787H60.8203V217.384H114.857C133.552 217.384 149.988 211.385 162.552 202.034C168.613 197.537 173.769 192.256 177.845 186.489C184.425 177.18 188.171 166.616 188.319 156.065C189.055 102.94 148.143 86.8479 122.749 86.8479Z" fill="#4474F4"/>
<path fill-rule="evenodd" clip-rule="evenodd" d="M233.853 129.345H255.712C261.127 129.345 263.028 134.865 262.993 142.099C263.211 148.539 259.199 153.63 253.277 153.63H233.853V129.345ZM313.992 229.527C277.199 222.265 245.189 213.371 217.908 203.416H233.853V176.704H236.891L270.885 209.492L293.957 196.135L268.457 176.704V173.665C284.725 170.256 291.361 161.635 292.133 147.563C293.74 118.289 283.428 108.096 267.244 108.096H199.851V196.401C192.064 193.182 184.727 189.871 177.845 186.489C173.769 192.256 168.613 197.537 162.552 202.035C203.709 219.951 255.796 233.377 313.992 241.67C366.773 249.863 419.785 251.47 473.057 245.913V243.487C419.26 246.91 366.816 240.491 313.992 229.527Z" fill="#4474F4"/>
<path fill-rule="evenodd" clip-rule="evenodd" d="M300.636 135.42L329.777 108.099H331.599V203.417H300.636V135.42Z" fill="#4474F4"/>
<path fill-rule="evenodd" clip-rule="evenodd" d="M313.992 54.0653C324.716 54.0653 333.42 62.7693 333.42 73.4933C333.42 84.2159 324.716 92.9199 313.992 92.9199C303.269 92.9199 294.564 84.2159 294.564 73.4933C294.564 62.7693 303.269 54.0653 313.992 54.0653Z" fill="#4474F4"/>
<path fill-rule="evenodd" clip-rule="evenodd" d="M341.92 109.92H343.135L398.383 166.383H399.597L456.06 109.92H457.881V203.417H426.917V171.847H425.704L399.597 203.417H397.168L371.063 171.847H369.241V203.417H341.92V109.92Z" fill="#4474F4"/>
<path fill-rule="evenodd" clip-rule="evenodd" d="M470.024 108.099H559.879V130.563H502.201V146.348H539.236V161.525H504.631V180.347H564.128V203.417H470.024V108.099Z" fill="#4474F4"/>
<path fill-rule="evenodd" clip-rule="evenodd" d="M599.949 108.099H662.483V130.563H616.341C612.752 130.563 612.195 135.627 614.52 136.634C635.364 145.663 655.056 155.21 664.304 169.419C666.943 173.473 666.711 181.539 664.304 187.632C660.935 196.171 655.344 203.417 645.484 203.417H587.199L570.807 183.989V181.561H624.841C626.697 181.561 627.371 179.204 626.663 176.704C624.585 169.376 608.54 165.419 599.949 162.74C575.568 155.139 570.496 144.02 570.807 131.777C571.105 120.019 581.78 108.099 599.949 108.099Z" fill="#4474F4"/>
<path fill-rule="evenodd" clip-rule="evenodd" d="M730.18 180.344C713.589 180.344 700.127 169.191 700.127 155.455C700.127 141.72 713.589 130.565 730.18 130.565C746.763 130.565 760.232 141.72 760.232 155.455C760.232 169.191 746.763 180.344 730.18 180.344ZM729.871 108.096C697.033 108.096 670.376 129.724 670.376 156.367C670.376 183.003 697.033 204.631 729.871 204.631C762.715 204.631 789.372 183.003 789.372 156.367C789.372 129.724 762.715 108.096 729.871 108.096Z" fill="#4474F4"/>
<path fill-rule="evenodd" clip-rule="evenodd" d="M798.479 108.099H891.369V130.563H834.3V148.169H873.763V173.061H835.513V204.632H798.479V108.099Z" fill="#4474F4"/>
<path fill-rule="evenodd" clip-rule="evenodd" d="M899.263 108.099H1012.9V144.527H1010.97L975.76 118.42H973.332V203.417H939.332V118.42H937.511L901.691 146.955H899.263V108.099Z" fill="#4474F4"/>
<path fill-rule="evenodd" clip-rule="evenodd" d="M101.501 86.8481H68.1089C87.723 20.3948 189.553 -20.2225 306.1 10.3495V13.3868C213.853 0.282822 129.259 25.5295 101.501 86.8481Z" fill="#4474F4"/>
</svg>
