<svg xmlns="http://www.w3.org/2000/svg" version="1.1" viewBox="-3 -3 1206 579" preserveAspectRatio="xMidYMid meet"><g id="deeditor_bgCarrier" stroke-width="0">
    <rect id="dee_c_e" x="-3" y="-3" width="1206" height="579" rx="0" fill="#17416f" strokewidth="0"/>
  </g>
<path d="M0 0 C76.89 0 153.78 0 233 0 C233 7.26 233 14.52 233 22 C230.382 22.242 227.764 22.485 225.066 22.734 C222.468 22.983 219.869 23.236 217.271 23.489 C215.496 23.66 213.721 23.827 211.945 23.989 C202.707 24.836 193.617 25.859 184.57 27.965 C183.887 28.123 183.203 28.282 182.498 28.445 C173.662 30.645 165.859 35.136 161 43 C154.879 54.887 153.994 69.676 153.426 82.82 C153.385 83.725 153.345 84.63 153.303 85.562 C152.894 95.377 152.859 105.184 152.871 115.005 C152.869 117.009 152.867 119.012 152.865 121.016 C152.861 126.39 152.862 131.764 152.866 137.138 C152.868 142.808 152.866 148.479 152.864 154.149 C152.862 163.668 152.865 173.187 152.87 182.706 C152.875 193.648 152.873 204.59 152.868 215.532 C152.863 224.99 152.863 234.448 152.865 243.906 C152.867 249.527 152.867 255.148 152.864 260.769 C152.38 299.182 152.38 299.182 155.25 337.438 C155.444 338.917 155.444 338.917 155.642 340.426 C158.594 361.312 165.851 378.193 181 393 C181.757 393.777 182.513 394.555 183.293 395.355 C196.732 408.425 214.596 416.901 232.5 421.75 C233.235 421.949 233.969 422.148 234.726 422.353 C246.895 425.44 259.101 426.414 271.625 426.375 C272.322 426.374 273.02 426.373 273.738 426.372 C285.551 426.324 296.618 425.274 308 422 C308.835 421.769 309.669 421.539 310.529 421.301 C341.332 412.592 365.871 396.149 383 369 C383.694 367.915 384.387 366.829 385.102 365.711 C400.696 340.208 409.458 310.124 419 282 C434.756 282.952 434.756 282.952 441.938 284.062 C443.102 284.239 444.266 284.416 445.465 284.598 C446.301 284.73 447.138 284.863 448 285 C446.49 288.411 444.487 290.927 442.062 293.75 C418.018 322.911 402.421 357.708 405 396 C405.92 405.445 408.833 413.742 412.793 422.27 C414 425 414 425 414 427 C342.522 454.385 267.033 458.723 195.362 430.044 C142.476 409.025 86.146 409.794 33.621 431.965 C22.716 436.705 12.402 442.136 2.379 448.531 C0 450 0 450 -1 450 C-1 440.76 -1 431.52 -1 422 C2.773 420.742 6.451 419.563 10.273 418.52 C42.992 409.515 42.992 409.515 67.312 387.125 C68.24 385.434 69.137 383.725 70 382 C70.379 381.242 70.758 380.484 71.148 379.703 C79.882 360.136 78.15 336.646 78.145 315.747 C78.148 313.216 78.152 310.685 78.155 308.153 C78.163 302.023 78.166 295.892 78.167 289.761 C78.168 284.77 78.17 279.779 78.173 274.788 C78.182 260.59 78.186 246.393 78.185 232.195 C78.185 231.432 78.185 230.669 78.185 229.883 C78.185 228.737 78.185 228.737 78.185 227.568 C78.185 215.199 78.194 202.831 78.208 190.462 C78.223 177.715 78.23 164.967 78.229 152.22 C78.229 145.083 78.231 137.945 78.242 130.807 C78.252 124.089 78.252 117.37 78.245 110.652 C78.243 108.201 78.246 105.751 78.252 103.3 C79.586 68.046 79.586 68.046 66 37 C49.703 22.352 20.491 23.837 0 22 C0 14.74 0 7.48 0 0 Z " fill="#ffffff" transform="translate(752,0)"/>
<path d="M0 0 C18.138 -1.936 18.138 -1.936 23.754 2.391 C26.314 4.804 28.525 7.451 30.653 10.248 C35.721 16.839 41.58 22.686 47.5 28.5 C51.602 32.529 55.662 36.539 59.406 40.906 C63.664 45.872 68.335 50.42 73 55 C73.051 48.201 73.086 41.401 73.11 34.602 C73.12 32.288 73.134 29.973 73.151 27.659 C73.175 24.338 73.186 21.017 73.195 17.695 C73.206 16.656 73.216 15.616 73.227 14.545 C73.227 13.584 73.227 12.623 73.227 11.633 C73.231 10.785 73.236 9.937 73.241 9.063 C73.19 6.777 73.19 6.777 71 5 C68.345 4.435 65.709 4.262 63 4 C63 2.68 63 1.36 63 0 C72.24 0 81.48 0 91 0 C91 1.32 91 2.64 91 4 C88.03 4.66 85.06 5.32 82 6 C81.67 28.77 81.34 51.54 81 75 C76 75 76 75 74.167 73.75 C73.609 73.173 73.051 72.595 72.477 72 C71.54 71.047 71.54 71.047 70.584 70.074 C69.938 69.39 69.291 68.705 68.625 68 C67.95 67.305 67.275 66.61 66.58 65.895 C62.925 62.108 59.391 58.245 56 54.219 C52.328 50.145 48.367 46.349 44.471 42.49 C40.841 38.882 37.361 35.236 34.074 31.309 C31.101 28 27.94 24.888 24.785 21.754 C24.133 21.104 23.481 20.454 22.809 19.784 C21.207 18.188 19.604 16.594 18 15 C17.924 22.351 17.871 29.701 17.835 37.052 C17.82 39.554 17.8 42.055 17.774 44.557 C17.737 48.149 17.72 51.74 17.707 55.332 C17.692 56.454 17.676 57.576 17.66 58.732 C17.66 59.773 17.66 60.814 17.659 61.886 C17.653 62.803 17.646 63.72 17.639 64.665 C18.07 67.453 18.775 68.321 21 70 C23.041 70.57 23.041 70.57 25.188 70.688 C26.446 70.791 27.704 70.894 29 71 C29 72.32 29 73.64 29 75 C19.43 75 9.86 75 0 75 C0 73.68 0 72.36 0 71 C1.114 70.876 2.227 70.753 3.375 70.625 C7.031 70.353 7.031 70.353 9 68 C9.293 65.288 9.293 65.288 9.227 62.082 C9.227 60.84 9.227 59.599 9.227 58.321 C9.216 56.961 9.206 55.602 9.195 54.242 C9.192 52.855 9.189 51.468 9.187 50.081 C9.179 46.428 9.159 42.775 9.137 39.122 C9.117 35.395 9.108 31.668 9.098 27.941 C9.076 20.628 9.042 13.314 9 6 C4.545 5.01 4.545 5.01 0 4 C0 2.68 0 1.36 0 0 Z " fill="#ffffff" transform="translate(252,497)"/>
<path d="M0 0 C4.859 4.657 7.129 8.342 7.312 15.188 C7.227 20.611 6.521 24.758 3 29 C0.15 31.29 -2.818 33.205 -6 35 C-5.374 35.62 -4.747 36.24 -4.102 36.879 C-1.54 39.436 0.968 42.043 3.477 44.652 C5.192 46.414 6.909 48.176 8.625 49.938 C9.464 50.819 10.303 51.7 11.168 52.607 C18.588 60.169 26.555 65.679 37 68 C37 68.99 37 69.98 37 71 C25.268 71.456 15.9 71.139 6.617 63.426 C2.474 59.585 -1.503 55.577 -5.421 51.507 C-14.35 42.155 -14.35 42.155 -26.5 39.125 C-27.727 39.086 -28.954 39.048 -30.219 39.008 C-31.137 39.005 -32.054 39.003 -33 39 C-32.861 42.604 -32.713 46.208 -32.562 49.812 C-32.523 50.837 -32.484 51.861 -32.443 52.916 C-32.401 53.899 -32.36 54.882 -32.316 55.895 C-32.28 56.801 -32.243 57.706 -32.205 58.64 C-32.079 61.15 -32.079 61.15 -31 64 C-27.7 64.66 -24.4 65.32 -21 66 C-21 67.32 -21 68.64 -21 70 C-32.22 70 -43.44 70 -55 70 C-55 68.68 -55 67.36 -55 66 C-53.721 65.876 -52.442 65.753 -51.125 65.625 C-47.652 65.31 -47.652 65.31 -45 63 C-44.693 60.344 -44.693 60.344 -44.741 57.205 C-44.732 55.383 -44.732 55.383 -44.722 53.524 C-44.726 52.207 -44.73 50.889 -44.734 49.531 C-44.733 48.171 -44.731 46.811 -44.729 45.451 C-44.726 42.6 -44.73 39.748 -44.739 36.897 C-44.751 33.238 -44.744 29.58 -44.732 25.921 C-44.725 23.112 -44.727 20.304 -44.732 17.495 C-44.734 15.489 -44.728 13.482 -44.722 11.476 C-44.728 10.261 -44.735 9.046 -44.741 7.795 C-44.743 6.722 -44.744 5.649 -44.746 4.543 C-44.746 1.832 -44.746 1.832 -47 0 C-49.655 -0.565 -52.291 -0.738 -55 -1 C-55 -2.32 -55 -3.64 -55 -5 C-10.608 -7.702 -10.608 -7.702 0 0 Z M-33 -2 C-33.025 3.251 -33.043 8.502 -33.055 13.753 C-33.06 15.541 -33.067 17.329 -33.075 19.116 C-33.088 21.681 -33.093 24.245 -33.098 26.809 C-33.103 27.613 -33.108 28.417 -33.113 29.245 C-33.113 31.164 -33.062 33.082 -33 35 C-31.822 36.4 -31.822 36.4 -28.5 36.188 C-21.261 36.071 -14.559 34.913 -9 30 C-5.182 24.969 -4.358 19.906 -4.617 13.684 C-5.443 7.894 -7.475 4.239 -12 0.562 C-16.902 -1.991 -20.714 -2.114 -26.25 -2.062 C-28.145 -2.049 -28.145 -2.049 -30.078 -2.035 C-31.042 -2.024 -32.007 -2.012 -33 -2 Z " fill="#ffffff" transform="translate(672,502)"/>
<path d="M0 0 C10.56 0 21.12 0 32 0 C32 0.99 32 1.98 32 3 C31.434 3.121 30.868 3.242 30.285 3.367 C29.185 3.619 29.185 3.619 28.062 3.875 C27.332 4.037 26.601 4.2 25.848 4.367 C23.793 4.83 23.793 4.83 23 7 C22.845 9.177 22.75 11.358 22.684 13.539 C22.642 14.841 22.6 16.143 22.557 17.484 C22.517 18.865 22.477 20.245 22.438 21.625 C22.394 23.013 22.351 24.401 22.307 25.789 C22.2 29.193 22.098 32.596 22 36 C33.75 30.519 43.49 20.938 49 9 C49.425 6.161 49.425 6.161 49 4 C46.69 3.67 44.38 3.34 42 3 C42 2.01 42 1.02 42 0 C52.56 0 63.12 0 74 0 C74 0.99 74 1.98 74 3 C73.276 3.086 72.551 3.173 71.805 3.262 C70.354 3.472 70.354 3.472 68.875 3.688 C67.924 3.815 66.972 3.943 65.992 4.074 C59.577 6.059 56.26 10.673 52.75 16.125 C48.414 22.686 43.443 28.33 38 34 C38.675 34.668 39.351 35.335 40.047 36.023 C43.515 39.494 46.887 43.053 50.25 46.625 C50.912 47.328 51.575 48.031 52.257 48.755 C56.796 53.61 61.038 58.576 65.07 63.863 C68.29 67.428 71.522 69.282 76.312 69.688 C77.529 69.791 78.746 69.894 80 70 C80.33 71.32 80.66 72.64 81 74 C69.12 74 57.24 74 45 74 C45 72.68 45 71.36 45 70 C47.64 69.67 50.28 69.34 53 69 C47.212 58.457 37.519 47.057 27 41 C25.339 40.638 23.673 40.301 22 40 C22.11 44.271 22.24 48.542 22.375 52.812 C22.406 54.027 22.437 55.242 22.469 56.494 C22.507 57.658 22.546 58.821 22.586 60.02 C22.633 61.63 22.633 61.63 22.681 63.273 C22.816 66.216 22.816 66.216 25 69 C26.954 69.79 26.954 69.79 29.125 70.188 C31.043 70.59 31.043 70.59 33 71 C33 71.99 33 72.98 33 74 C22.11 74 11.22 74 0 74 C0 73.01 0 72.02 0 71 C0.638 70.807 1.276 70.613 1.934 70.414 C3.173 70.023 3.173 70.023 4.438 69.625 C5.261 69.37 6.085 69.115 6.934 68.852 C9.178 68.191 9.178 68.191 10 66 C10.101 64.137 10.138 62.27 10.145 60.405 C10.152 59.233 10.158 58.062 10.165 56.855 C10.166 55.584 10.167 54.313 10.168 53.004 C10.171 51.704 10.175 50.405 10.178 49.066 C10.184 46.313 10.186 43.559 10.185 40.806 C10.185 37.278 10.199 33.749 10.216 30.221 C10.23 26.857 10.229 23.493 10.23 20.129 C10.241 18.226 10.241 18.226 10.252 16.284 C10.249 15.11 10.246 13.935 10.243 12.725 C10.244 11.689 10.246 10.654 10.247 9.587 C10.183 6.762 10.183 6.762 8 4 C6.036 3.423 6.036 3.423 3.875 3.312 C2.596 3.209 1.317 3.106 0 3 C0 2.01 0 1.02 0 0 Z " fill="#ffffff" transform="translate(181,362)"/>
<path d="M0 0 C10.89 0 21.78 0 33 0 C33 0.99 33 1.98 33 3 C32.362 3.11 31.724 3.219 31.066 3.332 C30.24 3.491 29.414 3.649 28.562 3.812 C27.739 3.963 26.915 4.114 26.066 4.27 C25.384 4.511 24.703 4.752 24 5 C22.899 8.302 22.794 10.941 22.684 14.418 C22.642 15.672 22.6 16.925 22.557 18.217 C22.517 19.527 22.478 20.837 22.438 22.188 C22.394 23.523 22.351 24.858 22.307 26.193 C22.2 29.462 22.098 32.731 22 36 C23.265 35.388 24.527 34.771 25.789 34.152 C26.492 33.809 27.196 33.466 27.92 33.113 C36.965 28.272 45.545 17.751 49.125 8.188 C49.414 7.136 49.702 6.084 50 5 C48.032 3.032 44.652 3.338 42 3 C42 2.01 42 1.02 42 0 C52.56 0 63.12 0 74 0 C74 0.99 74 1.98 74 3 C72.896 3.147 72.896 3.147 71.77 3.297 C70.794 3.446 69.818 3.596 68.812 3.75 C67.85 3.889 66.887 4.028 65.895 4.172 C59.737 5.934 56.731 10.459 53.312 15.562 C48.708 22.241 43.614 28.147 38 34 C40.323 36.327 42.647 38.653 44.992 40.957 C50.518 46.402 55.628 52.08 60.52 58.102 C60.961 58.642 61.402 59.182 61.856 59.739 C63.133 61.308 64.401 62.884 65.668 64.461 C70 69.178 73.873 69.387 80 70 C80.33 71.32 80.66 72.64 81 74 C69.12 74 57.24 74 45 74 C45.495 72.02 45.495 72.02 46 70 C48.31 69.67 50.62 69.34 53 69 C50.265 63.843 47.265 59.72 43.25 55.5 C42.72 54.938 42.19 54.375 41.644 53.796 C33.19 44.776 33.19 44.776 22 40 C22.139 44.104 22.287 48.208 22.438 52.312 C22.477 53.48 22.516 54.647 22.557 55.85 C22.599 56.968 22.64 58.086 22.684 59.238 C22.72 60.27 22.757 61.302 22.795 62.365 C22.902 65.107 22.902 65.107 24 68 C26.097 69.023 26.097 69.023 28.562 69.688 C29.389 69.939 30.215 70.19 31.066 70.449 C31.704 70.631 32.343 70.813 33 71 C33 71.99 33 72.98 33 74 C22.11 74 11.22 74 0 74 C0 73.01 0 72.02 0 71 C0.638 70.795 1.276 70.59 1.934 70.379 C2.76 70.109 3.586 69.84 4.438 69.562 C5.261 69.296 6.085 69.029 6.934 68.754 C8.962 68.178 8.962 68.178 10 67 C10.104 65.108 10.139 63.213 10.145 61.319 C10.152 60.104 10.158 58.889 10.165 57.638 C10.166 56.301 10.167 54.965 10.168 53.629 C10.171 52.267 10.175 50.906 10.178 49.545 C10.184 46.687 10.186 43.83 10.185 40.972 C10.185 37.306 10.199 33.639 10.216 29.973 C10.227 27.16 10.229 24.347 10.229 21.534 C10.23 20.182 10.234 18.83 10.242 17.478 C10.252 15.589 10.248 13.7 10.243 11.811 C10.244 10.735 10.246 9.658 10.247 8.55 C10.256 5.833 10.256 5.833 8 4 C5.345 3.435 2.709 3.262 0 3 C0 2.01 0 1.02 0 0 Z " fill="#ffffff" transform="translate(517,362)"/>
<path d="M0 0 C18.257 -1.623 18.257 -1.623 23.871 1.699 C25.875 4.062 25.875 4.062 27.766 6.809 C30.63 10.9 34.044 14.164 37.625 17.625 C41.363 21.28 45.007 24.953 48.418 28.918 C52.286 33.403 56.464 37.538 60.688 41.688 C62.173 43.147 63.656 44.609 65.137 46.074 C65.783 46.709 66.43 47.344 67.096 47.999 C69.215 50.226 71.11 52.577 73 55 C73.076 48.219 73.129 41.438 73.165 34.657 C73.18 32.349 73.2 30.042 73.226 27.734 C73.263 24.42 73.28 21.107 73.293 17.793 C73.308 16.759 73.324 15.724 73.34 14.658 C73.34 13.697 73.34 12.737 73.341 11.747 C73.347 10.901 73.354 10.055 73.361 9.183 C72.912 6.466 72.209 5.611 70 4 C66.39 3.27 66.39 3.27 63 3 C63 2.01 63 1.02 63 0 C72.24 0 81.48 0 91 0 C91 0.99 91 1.98 91 3 C90.362 3.121 89.724 3.242 89.066 3.367 C88.24 3.535 87.414 3.702 86.562 3.875 C85.739 4.037 84.915 4.2 84.066 4.367 C83.384 4.576 82.703 4.785 82 5 C80.578 7.845 80.836 10.289 80.795 13.469 C80.785 14.133 80.775 14.796 80.765 15.48 C80.733 17.677 80.708 19.873 80.684 22.07 C80.663 23.592 80.642 25.114 80.621 26.635 C80.565 30.643 80.516 34.651 80.468 38.66 C80.418 42.748 80.362 46.837 80.307 50.926 C80.199 58.95 80.098 66.975 80 75 C75.512 74.268 73.98 73.354 71.062 69.812 C67.185 65.285 63.122 61.057 58.875 56.875 C54.727 52.773 50.735 48.646 46.969 44.188 C43.516 40.352 39.796 36.777 36.129 33.148 C32.476 29.519 28.971 25.831 25.654 21.889 C23.943 19.935 22.153 18.105 20.309 16.277 C19.687 15.66 19.064 15.042 18.424 14.406 C17.954 13.942 17.484 13.478 17 13 C16.975 20.172 16.957 27.343 16.945 34.515 C16.94 36.954 16.933 39.394 16.925 41.833 C16.912 45.341 16.907 48.848 16.902 52.355 C16.897 53.445 16.892 54.535 16.887 55.658 C16.887 56.678 16.887 57.699 16.886 58.751 C16.883 60.093 16.883 60.093 16.88 61.463 C17.003 64.065 17.424 66.463 18 69 C21.3 69.33 24.6 69.66 28 70 C28 71.32 28 72.64 28 74 C18.76 74 9.52 74 0 74 C0.33 72.68 0.66 71.36 1 70 C2.134 69.711 3.269 69.423 4.438 69.125 C5.613 68.754 6.789 68.382 8 68 C9.344 65.311 9.162 63.184 9.205 60.173 C9.225 58.952 9.245 57.731 9.266 56.473 C9.283 55.136 9.3 53.798 9.316 52.461 C9.337 51.096 9.358 49.731 9.379 48.367 C9.435 44.773 9.484 41.179 9.532 37.585 C9.582 33.919 9.638 30.252 9.693 26.586 C9.801 19.391 9.902 12.195 10 5 C6.7 4.34 3.4 3.68 0 3 C0 2.01 0 1.02 0 0 Z " fill="#ffffff" transform="translate(276,362)"/>
<path d="M0 0 C19.14 0 38.28 0 58 0 C58.495 8.91 58.495 8.91 59 18 C57.68 17.67 56.36 17.34 55 17 C53.988 14.969 53.988 14.969 53.312 12.5 C52.632 9.482 52.632 9.482 51 7 C48.929 6.842 46.853 6.749 44.777 6.684 C43.643 6.645 42.508 6.607 41.34 6.568 C39.161 6.503 39.161 6.503 36.938 6.438 C32.338 6.293 27.739 6.149 23 6 C23 15.24 23 24.48 23 34 C26.568 33.876 30.136 33.753 33.812 33.625 C34.934 33.591 36.055 33.557 37.21 33.522 C38.096 33.486 38.982 33.451 39.895 33.414 C40.801 33.383 41.706 33.351 42.64 33.319 C45.265 33.14 45.265 33.14 48 31 C49.213 27.946 49.213 27.946 50 25 C50.99 25 51.98 25 53 25 C53 32.59 53 40.18 53 48 C52.01 48 51.02 48 50 48 C49.34 45.36 48.68 42.72 48 40 C39.75 39.67 31.5 39.34 23 39 C23.14 43.459 23.287 47.917 23.438 52.375 C23.477 53.646 23.516 54.917 23.557 56.227 C23.599 57.438 23.64 58.65 23.684 59.898 C23.72 61.019 23.757 62.14 23.795 63.294 C23.826 65.967 23.826 65.967 25 68 C29.395 68.145 33.79 68.234 38.188 68.312 C39.433 68.354 40.679 68.396 41.963 68.439 C49.05 68.68 49.05 68.68 55.25 65.719 C57.281 62.574 57.281 62.574 58.812 59.188 C59.204 58.136 59.596 57.084 60 56 C60.99 56 61.98 56 63 56 C63.096 62.039 63.078 68.036 62 74 C61 75 61 75 58.488 75.12 C57.371 75.118 56.254 75.116 55.103 75.114 C53.842 75.113 52.581 75.113 51.281 75.113 C49.895 75.108 48.508 75.103 47.121 75.098 C45.71 75.096 44.299 75.094 42.888 75.093 C39.168 75.09 35.447 75.08 31.727 75.069 C27.933 75.058 24.139 75.054 20.346 75.049 C12.897 75.038 5.449 75.021 -2 75 C-2 73.68 -2 72.36 -2 71 C-0.969 70.944 -0.969 70.944 0.082 70.887 C0.983 70.821 1.884 70.755 2.812 70.688 C3.706 70.629 4.599 70.571 5.52 70.512 C8.457 69.906 9.221 69.382 11 67 C11.45 64.29 11.45 64.29 11.372 61.183 C11.379 59.989 11.385 58.794 11.391 57.563 C11.377 55.627 11.377 55.627 11.363 53.652 C11.363 52.316 11.363 50.98 11.365 49.644 C11.365 46.845 11.354 44.047 11.336 41.249 C11.313 37.658 11.313 34.068 11.32 30.478 C11.323 27.72 11.316 24.962 11.307 22.204 C11.301 20.235 11.302 18.266 11.304 16.298 C11.294 15.106 11.284 13.915 11.275 12.687 C11.27 11.635 11.265 10.582 11.261 9.498 C11.247 6.827 11.247 6.827 9 5 C6.797 4.54 6.797 4.54 4.375 4.375 C3.558 4.3 2.74 4.225 1.898 4.148 C1.272 4.099 0.645 4.05 0 4 C0 2.68 0 1.36 0 0 Z " fill="#ffffff" transform="translate(526,497)"/>
<path d="M0 0 C10.23 0 20.46 0 31 0 C31 1.32 31 2.64 31 4 C29.886 4.103 28.773 4.206 27.625 4.312 C26.429 4.539 25.233 4.766 24 5 C21.975 8.038 21.747 8.642 21.725 12.053 C21.716 12.865 21.706 13.676 21.696 14.513 C21.698 15.825 21.698 15.825 21.699 17.164 C21.695 18.071 21.691 18.977 21.686 19.911 C21.68 21.833 21.68 23.755 21.684 25.676 C21.687 28.593 21.664 31.509 21.639 34.426 C21.636 36.297 21.636 38.168 21.637 40.039 C21.628 40.902 21.618 41.765 21.609 42.654 C21.659 49.366 22.597 55.931 26.832 61.34 C27.486 61.867 28.139 62.394 28.812 62.938 C29.781 63.755 29.781 63.755 30.77 64.59 C38.552 69.51 49.298 69.269 58.09 67.312 C64.625 64.954 68.125 61.75 71.25 55.5 C72.866 50.115 73.159 44.813 73.168 39.223 C73.171 38.493 73.175 37.764 73.178 37.012 C73.183 35.476 73.185 33.941 73.185 32.406 C73.187 30.073 73.206 27.741 73.225 25.408 C73.228 23.909 73.23 22.41 73.23 20.91 C73.241 19.877 73.241 19.877 73.252 18.823 C73.231 14.156 72.439 10.388 71 6 C66.545 5.01 66.545 5.01 62 4 C62 2.68 62 1.36 62 0 C71.57 0 81.14 0 91 0 C91 1.32 91 2.64 91 4 C88.982 4.391 86.964 4.781 84.945 5.172 C82.338 6.282 82.049 7.412 81 10 C80.705 12.018 80.705 12.018 80.745 14.135 C80.738 14.94 80.731 15.745 80.724 16.575 C80.725 17.87 80.725 17.87 80.727 19.191 C80.706 21.042 80.685 22.893 80.664 24.744 C80.642 27.645 80.625 30.545 80.619 33.446 C80.534 58.217 80.534 58.217 72.312 67.438 C62.004 76.84 49.616 76.653 36.435 76.179 C31.693 75.83 28 74.5 24 72 C23.278 71.587 22.556 71.175 21.812 70.75 C15.633 66.751 12.345 61.033 10.458 53.974 C9.79 49.639 9.803 45.337 9.754 40.957 C9.721 38.977 9.688 36.997 9.654 35.018 C9.607 31.903 9.562 28.789 9.523 25.675 C9.484 22.665 9.432 19.655 9.379 16.645 C9.37 15.708 9.362 14.772 9.353 13.807 C9.337 12.942 9.32 12.078 9.303 11.187 C9.293 10.425 9.282 9.663 9.272 8.877 C9.156 6.757 9.156 6.757 7 5 C4.677 4.6 2.343 4.26 0 4 C0 2.68 0 1.36 0 0 Z " fill="#ffffff" transform="translate(141,497)"/>
<path d="M0 0 C19.14 0 38.28 0 58 0 C58.495 8.91 58.495 8.91 59 18 C57.68 17.67 56.36 17.34 55 17 C53.988 14.969 53.988 14.969 53.312 12.5 C52.632 9.482 52.632 9.482 51 7 C48.929 6.842 46.853 6.749 44.777 6.684 C43.643 6.645 42.508 6.607 41.34 6.568 C39.161 6.503 39.161 6.503 36.938 6.438 C32.338 6.293 27.739 6.149 23 6 C23 15.24 23 24.48 23 34 C26.568 33.876 30.136 33.753 33.812 33.625 C34.934 33.591 36.055 33.557 37.21 33.522 C38.096 33.486 38.982 33.451 39.895 33.414 C40.801 33.383 41.706 33.351 42.64 33.319 C45.265 33.14 45.265 33.14 48 31 C49.213 27.946 49.213 27.946 50 25 C50.99 25 51.98 25 53 25 C53 32.59 53 40.18 53 48 C52.01 48 51.02 48 50 48 C49.34 45.36 48.68 42.72 48 40 C39.75 39.67 31.5 39.34 23 39 C23.14 43.459 23.287 47.917 23.438 52.375 C23.477 53.646 23.516 54.917 23.557 56.227 C23.599 57.438 23.64 58.65 23.684 59.898 C23.72 61.019 23.757 62.14 23.795 63.294 C23.826 65.967 23.826 65.967 25 68 C29.396 68.116 33.791 68.187 38.188 68.25 C39.433 68.284 40.679 68.317 41.963 68.352 C43.165 68.364 44.367 68.377 45.605 68.391 C46.71 68.412 47.815 68.433 48.954 68.454 C52.696 67.896 54.314 66.609 57 64 C58.196 61.92 58.196 61.92 58.812 59.75 C59.4 57.894 59.4 57.894 60 56 C60.99 56 61.98 56 63 56 C63.096 62.039 63.078 68.036 62 74 C61 75 61 75 58.488 75.12 C57.371 75.118 56.254 75.116 55.103 75.114 C53.842 75.113 52.581 75.113 51.281 75.113 C49.895 75.108 48.508 75.103 47.121 75.098 C45.71 75.096 44.299 75.094 42.888 75.093 C39.168 75.09 35.447 75.08 31.727 75.069 C27.933 75.058 24.139 75.054 20.346 75.049 C12.897 75.038 5.449 75.021 -2 75 C-2 73.68 -2 72.36 -2 71 C-0.969 70.944 -0.969 70.944 0.082 70.887 C0.983 70.821 1.884 70.755 2.812 70.688 C3.706 70.629 4.599 70.571 5.52 70.512 C8.457 69.906 9.221 69.382 11 67 C11.45 64.29 11.45 64.29 11.372 61.183 C11.379 59.989 11.385 58.794 11.391 57.563 C11.377 55.627 11.377 55.627 11.363 53.652 C11.363 52.316 11.363 50.98 11.365 49.644 C11.365 46.845 11.354 44.047 11.336 41.249 C11.313 37.658 11.313 34.068 11.32 30.478 C11.323 27.72 11.316 24.962 11.307 22.204 C11.301 20.235 11.302 18.266 11.304 16.298 C11.294 15.106 11.284 13.915 11.275 12.687 C11.27 11.635 11.265 10.582 11.261 9.498 C11.247 6.827 11.247 6.827 9 5 C6.797 4.54 6.797 4.54 4.375 4.375 C3.558 4.3 2.74 4.225 1.898 4.148 C1.272 4.099 0.645 4.05 0 4 C0 2.68 0 1.36 0 0 Z " fill="#ffffff" transform="translate(940,497)"/>
<path d="M0 0 C10.56 0 21.12 0 32 0 C32 0.99 32 1.98 32 3 C30.907 3.062 29.814 3.124 28.688 3.188 C24.975 3.614 24.975 3.614 23.294 6.023 C21.627 9.859 21.569 13.341 21.602 17.449 C21.599 18.262 21.596 19.075 21.593 19.912 C21.591 21.629 21.596 23.346 21.609 25.063 C21.625 27.662 21.609 30.259 21.59 32.857 C21.577 42.797 21.674 51.718 27.125 60.375 C33.362 66.069 40.639 68.1 49 68 C56.088 67.446 62.7 66 68 61 C71.065 56.438 73.116 51.486 73.145 45.959 C73.152 45.152 73.158 44.344 73.165 43.512 C73.166 42.643 73.167 41.774 73.168 40.879 C73.171 39.983 73.175 39.086 73.178 38.163 C73.183 36.267 73.185 34.372 73.185 32.476 C73.187 29.577 73.206 26.678 73.225 23.779 C73.228 21.938 73.23 20.096 73.23 18.254 C73.241 16.954 73.241 16.954 73.252 15.627 C73.248 14.411 73.248 14.411 73.243 13.17 C73.244 12.46 73.246 11.749 73.247 11.017 C72.954 8.627 72.267 7.041 71 5 C68.837 3.877 68.837 3.877 66.375 3.25 C65.558 3.008 64.74 2.765 63.898 2.516 C63.272 2.345 62.645 2.175 62 2 C62 1.34 62 0.68 62 0 C71.57 0 81.14 0 91 0 C91 0.99 91 1.98 91 3 C89.329 3.433 89.329 3.433 87.625 3.875 C83.997 4.692 83.997 4.692 82 7 C80.623 11.604 80.848 16.379 80.824 21.141 C80.801 22.952 80.777 24.763 80.752 26.574 C80.717 29.409 80.688 32.244 80.674 35.079 C80.658 37.829 80.618 40.578 80.574 43.328 C80.576 44.163 80.578 44.998 80.58 45.857 C80.41 54.136 77.464 61.321 71.82 67.434 C63.771 74.36 53.014 76.499 42.645 76.254 C31.374 75.172 23.077 71.791 15.578 63.293 C11.185 56.91 10.551 51.468 10.523 43.902 C10.508 42.95 10.492 41.997 10.476 41.016 C10.429 37.99 10.401 34.964 10.375 31.938 C10.338 28.908 10.298 25.878 10.252 22.848 C10.225 20.969 10.204 19.089 10.189 17.209 C10.135 12.699 9.909 8.439 9 4 C6.03 3.67 3.06 3.34 0 3 C0 2.01 0 1.02 0 0 Z " fill="#ffffff" transform="translate(426,226)"/>
<path d="M0 0 C19.14 0 38.28 0 58 0 C58.495 8.415 58.495 8.415 59 17 C57.68 17 56.36 17 55 17 C54.807 16.29 54.613 15.579 54.414 14.848 C54.154 13.929 53.893 13.009 53.625 12.062 C53.37 11.146 53.115 10.229 52.852 9.285 C52.233 6.833 52.233 6.833 50 6 C47.969 5.846 45.934 5.75 43.898 5.684 C42.807 5.645 41.716 5.607 40.591 5.568 C39.2 5.525 37.809 5.482 36.375 5.438 C29.754 5.221 29.754 5.221 23 5 C23 14.24 23 23.48 23 33 C26.568 32.876 30.136 32.752 33.812 32.625 C34.934 32.591 36.055 32.557 37.21 32.522 C38.096 32.486 38.982 32.451 39.895 32.414 C40.801 32.383 41.706 32.351 42.64 32.319 C45.265 32.14 45.265 32.14 48 30 C49.213 26.946 49.213 26.946 50 24 C50.99 24 51.98 24 53 24 C53 31.59 53 39.18 53 47 C52.01 47 51.02 47 50 47 C49.526 45.866 49.051 44.731 48.562 43.562 C47.364 40.243 47.364 40.243 46 39 C44.294 38.843 42.583 38.749 40.871 38.684 C39.319 38.621 39.319 38.621 37.736 38.557 C36.648 38.517 35.559 38.478 34.438 38.438 C33.345 38.394 32.253 38.351 31.127 38.307 C28.418 38.2 25.709 38.098 23 38 C23.069 41.952 23.157 45.902 23.262 49.853 C23.312 51.859 23.347 53.865 23.381 55.871 C23.434 57.756 23.434 57.756 23.488 59.68 C23.514 60.842 23.541 62.005 23.568 63.203 C23.71 64.126 23.853 65.049 24 66 C27.228 68.152 28.135 68.256 31.859 68.266 C33.286 68.269 33.286 68.269 34.742 68.273 C35.735 68.266 36.727 68.258 37.75 68.25 C39.216 68.262 39.216 68.262 40.711 68.273 C46.132 68.259 50.986 68.177 56 66 C57.428 63.957 57.428 63.957 57.875 61.5 C58.079 60.706 58.282 59.912 58.492 59.094 C58.744 58.057 58.744 58.057 59 57 C59.495 56.01 59.495 56.01 60 55 C60.99 55 61.98 55 63 55 C62.86 57.792 62.713 60.583 62.562 63.375 C62.523 64.169 62.484 64.963 62.443 65.781 C62.113 71.773 62.113 71.773 61 74 C40.21 74 19.42 74 -2 74 C-2 73.01 -2 72.02 -2 71 C-0.844 70.836 -0.844 70.836 0.336 70.668 C1.339 70.509 2.342 70.351 3.375 70.188 C4.373 70.037 5.37 69.886 6.398 69.73 C9.329 69.212 9.329 69.212 11 66 C11.311 63.333 11.311 63.333 11.275 60.291 C11.284 59.12 11.294 57.948 11.304 56.742 C11.302 54.843 11.302 54.843 11.301 52.906 C11.305 51.608 11.309 50.31 11.314 48.972 C11.321 46.225 11.321 43.478 11.316 40.731 C11.31 37.21 11.327 33.69 11.35 30.169 C11.368 26.81 11.365 23.452 11.363 20.094 C11.372 18.828 11.382 17.562 11.391 16.258 C11.382 14.501 11.382 14.501 11.372 12.709 C11.373 11.677 11.374 10.644 11.374 9.58 C11.209 6.966 11.209 6.966 9.604 5.175 C7.623 3.724 6.245 3.512 3.812 3.312 C2.554 3.209 1.296 3.106 0 3 C0 2.01 0 1.02 0 0 Z " fill="#ffffff" transform="translate(611,226)"/>
<path d="M0 0 C3.96 0 7.92 0 12 0 C12.796 2.081 13.591 4.161 14.387 6.242 C14.64 6.905 14.894 7.568 15.155 8.252 C16.583 11.986 18.011 15.721 19.438 19.455 C22.225 26.746 25.013 34.036 27.804 41.324 C28.999 44.445 30.194 47.566 31.388 50.687 C31.962 52.185 32.536 53.683 33.109 55.18 C33.912 57.275 34.714 59.37 35.516 61.465 C35.972 62.657 36.429 63.849 36.899 65.078 C37.638 67.038 38.338 69.013 39 71 C41.31 71.33 43.62 71.66 46 72 C46.33 73.32 46.66 74.64 47 76 C36.11 76 25.22 76 14 76 C14 75.01 14 74.02 14 73 C18.95 72.01 18.95 72.01 24 71 C25.077 66.693 24.864 65.823 23.348 61.867 C22.983 60.897 22.619 59.926 22.244 58.926 C21.854 57.919 21.464 56.912 21.062 55.875 C20.301 53.873 19.542 51.871 18.785 49.867 C18.444 48.981 18.102 48.096 17.75 47.183 C17 45 17 45 17 43 C9.08 43 1.16 43 -7 43 C-7.99 46.3 -8.98 49.6 -10 53 C-11.331 56.649 -12.711 60.275 -14.109 63.898 C-15.32 67.139 -15.32 67.139 -14 71 C-10.7 71.66 -7.4 72.32 -4 73 C-4 73.99 -4 74.98 -4 76 C-13.57 76 -23.14 76 -33 76 C-32.67 74.68 -32.34 73.36 -32 72 C-30.948 71.876 -29.896 71.752 -28.812 71.625 C-26.19 70.872 -25.222 70.329 -23.678 68.04 C-20.734 61.808 -18.197 55.52 -15.898 49.023 C-15.354 47.508 -15.354 47.508 -14.798 45.963 C-13.651 42.769 -12.513 39.572 -11.375 36.375 C-10.228 33.172 -9.079 29.969 -7.931 26.766 C-7.22 24.783 -6.511 22.8 -5.804 20.816 C-5.48 19.908 -5.156 19 -4.822 18.064 C-4.516 17.202 -4.209 16.34 -3.894 15.451 C-3.059 13.162 -2.164 10.905 -1.26 8.643 C0.272 4.855 0.272 4.855 0 0 Z M4 13 C2.661 16.623 1.33 20.249 0 23.875 C-0.382 24.908 -0.763 25.94 -1.156 27.004 C-1.517 27.99 -1.878 28.976 -2.25 29.992 C-2.585 30.903 -2.92 31.815 -3.266 32.753 C-4.104 34.923 -4.104 34.923 -4 37 C1.94 37 7.88 37 14 37 C11.787 29.195 9.378 21.391 6 14 C5.34 13.67 4.68 13.34 4 13 Z " fill="#ffffff" transform="translate(644,360)"/>
<path d="M0 0 C3.63 0 7.26 0 11 0 C17.06 14.93 22.803 29.967 28.438 45.062 C29.26 47.259 30.082 49.454 30.904 51.65 C31.685 53.737 32.466 55.824 33.246 57.91 C33.61 58.882 33.973 59.854 34.348 60.855 C34.682 61.751 35.016 62.647 35.361 63.571 C35.655 64.356 35.948 65.142 36.25 65.952 C36.862 67.624 37.437 69.31 38 71 C39.874 71.802 39.874 71.802 42.062 72.188 C43.163 72.425 43.163 72.425 44.285 72.668 C45.134 72.832 45.134 72.832 46 73 C46 73.99 46 74.98 46 76 C35.11 76 24.22 76 13 76 C13 75.01 13 74.02 13 73 C16.63 72.34 20.26 71.68 24 71 C23.421 64.97 21.622 59.815 19.438 54.188 C18.788 52.495 18.14 50.801 17.496 49.105 C17.066 47.994 17.066 47.994 16.627 46.86 C16 45 16 45 16 43 C8.08 43 0.16 43 -8 43 C-8.33 44.65 -8.66 46.3 -9 48 C-9.52 49.514 -10.075 51.016 -10.664 52.504 C-10.981 53.327 -11.298 54.15 -11.625 54.998 C-12.294 56.714 -12.969 58.427 -13.648 60.139 C-13.963 60.96 -14.278 61.782 -14.602 62.629 C-15.04 63.744 -15.04 63.744 -15.487 64.881 C-16.25 67.315 -16.25 67.315 -15 71 C-11.7 71.66 -8.4 72.32 -5 73 C-5 73.99 -5 74.98 -5 76 C-14.57 76 -24.14 76 -34 76 C-34 75.01 -34 74.02 -34 73 C-32.783 72.711 -31.566 72.423 -30.312 72.125 C-25.424 70.271 -24.39 67.507 -22.261 62.945 C-20.038 57.754 -18.083 52.481 -16.172 47.168 C-15.737 45.973 -15.303 44.778 -14.855 43.547 C-13.945 41.04 -13.037 38.532 -12.133 36.022 C-10.977 32.814 -9.813 29.609 -8.646 26.406 C-7.526 23.328 -6.411 20.248 -5.297 17.168 C-4.672 15.449 -4.672 15.449 -4.034 13.696 C-3.65 12.627 -3.266 11.559 -2.87 10.458 C-2.532 9.522 -2.194 8.586 -1.846 7.622 C-0.829 4.641 -0.829 4.641 0 0 Z M3 13 C1.661 16.623 0.33 20.249 -1 23.875 C-1.382 24.908 -1.763 25.94 -2.156 27.004 C-2.517 27.99 -2.878 28.976 -3.25 29.992 C-3.585 30.903 -3.92 31.815 -4.266 32.753 C-5.104 34.923 -5.104 34.923 -5 37 C0.94 37 6.88 37 13 37 C10.659 28.867 7.898 20.948 5 13 C4.34 13 3.68 13 3 13 Z " fill="#ffffff" transform="translate(729,224)"/>
<path d="M0 0 C18.81 0 37.62 0 57 0 C57.812 4.062 58.107 7.234 58.062 11.312 C58.053 12.381 58.044 13.45 58.035 14.551 C58.024 15.359 58.012 16.167 58 17 C57.01 17 56.02 17 55 17 C54.807 16.374 54.613 15.747 54.414 15.102 C54.023 13.876 54.023 13.876 53.625 12.625 C53.37 11.813 53.115 11.001 52.852 10.164 C52.101 7.835 52.101 7.835 50 6 C47.088 5.627 47.088 5.627 43.68 5.586 C41.982 5.533 41.982 5.533 40.25 5.478 C38.084 5.427 38.084 5.427 35.875 5.375 C31.296 5.251 26.718 5.127 22 5 C22 14.24 22 23.48 22 33 C25.568 32.856 29.136 32.711 32.812 32.562 C34.494 32.498 34.494 32.498 36.21 32.432 C37.096 32.394 37.982 32.356 38.895 32.316 C40.253 32.261 40.253 32.261 41.64 32.205 C44.15 32.079 44.15 32.079 47 31 C48.23 27.488 48.23 27.488 49 24 C50.32 24 51.64 24 53 24 C53 31.59 53 39.18 53 47 C51.68 47 50.36 47 49 47 C48.711 45.866 48.423 44.731 48.125 43.562 C47.754 42.387 47.382 41.211 47 40 C44.483 38.742 42.587 38.792 39.773 38.684 C38.742 38.642 37.711 38.6 36.648 38.557 C35.028 38.498 35.028 38.498 33.375 38.438 C31.743 38.373 31.743 38.373 30.078 38.307 C27.386 38.2 24.693 38.098 22 38 C22.139 42.271 22.287 46.542 22.438 50.812 C22.477 52.027 22.516 53.242 22.557 54.494 C22.599 55.658 22.64 56.821 22.684 58.02 C22.72 59.093 22.757 60.167 22.795 61.273 C22.895 64.093 22.895 64.093 24 67 C28.071 68.523 32.463 68.184 36.75 68.188 C37.523 68.2 38.297 68.212 39.094 68.225 C44.395 68.238 48.999 67.841 54 66 C56.207 63.47 56.207 63.47 57.5 60.375 C57.985 59.372 58.469 58.369 58.969 57.336 C59.309 56.565 59.649 55.794 60 55 C60.99 55 61.98 55 63 55 C62.34 61.27 61.68 67.54 61 74 C39.88 74 18.76 74 -3 74 C-3 73.01 -3 72.02 -3 71 C-2.241 70.914 -1.481 70.827 -0.699 70.738 C0.295 70.598 1.289 70.457 2.312 70.312 C3.299 70.185 4.285 70.057 5.301 69.926 C8.151 69.233 8.151 69.233 9.644 66.788 C11.131 63.732 11.38 61.839 11.388 58.463 C11.398 57.378 11.407 56.294 11.417 55.176 C11.411 54.015 11.405 52.853 11.398 51.656 C11.401 50.454 11.404 49.253 11.407 48.014 C11.409 45.476 11.404 42.937 11.391 40.399 C11.375 36.514 11.391 32.631 11.41 28.746 C11.408 26.279 11.404 23.811 11.398 21.344 C11.405 20.182 11.411 19.021 11.417 17.824 C11.407 16.739 11.398 15.655 11.388 14.537 C11.386 13.586 11.383 12.635 11.381 11.656 C10.926 8.481 9.881 6.578 8 4 C5.979 3.194 5.979 3.194 3.812 3.188 C1.925 3.095 1.925 3.095 0 3 C0 2.01 0 1.02 0 0 Z " fill="#ffffff" transform="translate(95,362)"/>
<path d="M0 0 C10.89 0 21.78 0 33 0 C33 1.32 33 2.64 33 4 C29.7 4.66 26.4 5.32 23 6 C21.788 9.636 22.305 10.441 23.707 13.915 C24.104 14.912 24.501 15.91 24.91 16.938 C25.35 18.013 25.789 19.088 26.242 20.195 C26.685 21.298 27.128 22.402 27.585 23.538 C28.523 25.872 29.467 28.204 30.415 30.534 C31.87 34.114 33.313 37.699 34.754 41.285 C35.666 43.547 36.579 45.809 37.492 48.07 C37.928 49.149 38.363 50.229 38.812 51.34 C39.215 52.332 39.619 53.323 40.035 54.344 C40.569 55.66 40.569 55.66 41.114 57.002 C41.838 58.958 41.838 58.958 43 60 C45.394 53.902 47.777 47.8 50.153 41.696 C50.962 39.622 51.773 37.549 52.586 35.478 C53.759 32.489 54.923 29.497 56.086 26.504 C56.447 25.588 56.809 24.672 57.181 23.728 C60.737 14.623 60.737 14.623 62 5 C58.7 4.67 55.4 4.34 52 4 C52 2.68 52 1.36 52 0 C61.24 0 70.48 0 80 0 C80 1.32 80 2.64 80 4 C78.374 4.315 78.374 4.315 76.714 4.637 C72.905 5.659 72.905 5.659 71.071 8.517 C70.576 9.603 70.08 10.69 69.57 11.809 C69.288 12.418 69.006 13.027 68.716 13.655 C64.673 22.608 61.307 31.864 57.875 41.062 C57.179 42.912 56.482 44.762 55.785 46.611 C54.453 50.146 53.123 53.682 51.796 57.219 C50.227 61.397 48.656 65.574 47.07 69.746 C46.689 70.752 46.308 71.758 45.915 72.795 C45 75 45 75 44 76 C41.667 76.041 39.333 76.042 37 76 C33.495 69.304 30.676 62.425 27.902 55.398 C27.176 53.572 26.449 51.746 25.722 49.92 C24.713 47.382 23.708 44.843 22.702 42.305 C20.938 37.853 19.173 33.401 17.403 28.952 C16.463 26.589 15.526 24.225 14.592 21.86 C11.381 12.78 11.381 12.78 6 5 C4.012 4.602 2.011 4.262 0 4 C0 2.68 0 1.36 0 0 Z " fill="#ffffff" transform="translate(429,497)"/>
<path d="M0 0 C1.224 0.002 2.447 0.004 3.708 0.007 C4.717 0.007 4.717 0.007 5.748 0.006 C7.982 0.007 10.217 0.015 12.452 0.023 C13.997 0.024 15.543 0.026 17.088 0.027 C21.164 0.031 25.239 0.041 29.315 0.052 C33.47 0.062 37.626 0.066 41.782 0.071 C49.941 0.082 58.101 0.099 66.26 0.12 C66.599 2.328 66.931 4.536 67.26 6.745 C67.446 7.975 67.631 9.205 67.823 10.472 C68.214 13.737 68.341 16.837 68.26 20.12 C67.27 20.12 66.28 20.12 65.26 20.12 C64.845 18.947 64.845 18.947 64.42 17.749 C63.877 16.231 63.877 16.231 63.323 14.683 C62.783 13.169 62.783 13.169 62.233 11.624 C61.491 9.217 61.491 9.217 60.26 8.12 C58.555 7.963 56.843 7.869 55.131 7.804 C53.58 7.741 53.58 7.741 51.997 7.677 C50.908 7.638 49.819 7.598 48.698 7.558 C47.605 7.515 46.513 7.471 45.387 7.427 C42.678 7.32 39.969 7.218 37.26 7.12 C37.345 15.17 37.439 23.219 37.548 31.268 C37.598 35.005 37.644 38.743 37.682 42.48 C37.719 46.085 37.765 49.69 37.818 53.295 C37.837 54.672 37.852 56.049 37.864 57.427 C37.88 59.352 37.911 61.277 37.941 63.202 C37.955 64.299 37.968 65.396 37.982 66.526 C38.003 69.281 38.003 69.281 40.26 71.12 C42.693 71.582 42.693 71.582 45.385 71.745 C46.295 71.82 47.205 71.895 48.143 71.972 C49.191 72.045 49.191 72.045 50.26 72.12 C50.26 73.44 50.26 74.76 50.26 76.12 C37.72 76.12 25.18 76.12 12.26 76.12 C12.26 74.8 12.26 73.48 12.26 72.12 C13.291 72.064 13.291 72.064 14.342 72.007 C15.243 71.941 16.144 71.875 17.073 71.808 C17.966 71.75 18.859 71.692 19.78 71.632 C22.721 71.025 23.48 70.507 25.26 68.12 C25.734 65.357 25.734 65.357 25.693 62.18 C25.712 60.959 25.732 59.738 25.753 58.48 C25.759 57.161 25.765 55.842 25.772 54.484 C25.789 53.12 25.807 51.757 25.826 50.393 C25.874 46.808 25.904 43.223 25.93 39.637 C25.96 35.977 26.006 32.317 26.051 28.657 C26.137 21.478 26.205 14.299 26.26 7.12 C22.488 7.143 18.719 7.22 14.948 7.308 C13.876 7.314 12.804 7.319 11.7 7.325 C10.672 7.354 9.644 7.383 8.584 7.413 C7.637 7.429 6.689 7.445 5.712 7.461 C3.05 7.909 3.05 7.909 1.502 10.426 C0.045 13.588 -0.881 16.751 -1.74 20.12 C-2.73 20.12 -3.72 20.12 -4.74 20.12 C-4.842 13.751 -4.753 7.425 -3.74 1.12 C-2.74 0.12 -2.74 0.12 0 0 Z " fill="#ffffff" transform="translate(1025.739761352539,495.87974548339844)"/>
<path d="M0 0 C23.1 0 46.2 0 70 0 C70.99 9.9 70.99 9.9 72 20 C70.68 19.67 69.36 19.34 68 19 C66.988 16.75 66.988 16.75 66.312 14 C65.691 10.714 65.691 10.714 64 8 C56.41 7.67 48.82 7.34 41 7 C41.33 28.12 41.66 49.24 42 71 C45.96 71.33 49.92 71.66 54 72 C54 73.32 54 74.64 54 76 C41.46 76 28.92 76 16 76 C16 74.68 16 73.36 16 72 C16.699 71.939 17.397 71.879 18.117 71.816 C19.027 71.733 19.937 71.649 20.875 71.562 C21.78 71.481 22.685 71.4 23.617 71.316 C26.011 71.13 26.011 71.13 28 70 C29.058 66.825 29.156 64.489 29.205 61.152 C29.225 59.951 29.245 58.75 29.266 57.512 C29.282 56.215 29.299 54.918 29.316 53.582 C29.337 52.241 29.358 50.9 29.379 49.559 C29.435 46.033 29.484 42.507 29.532 38.98 C29.582 35.381 29.638 31.781 29.693 28.182 C29.801 21.121 29.902 14.061 30 7 C17.625 7.495 17.625 7.495 5 8 C4.01 11.96 3.02 15.92 2 20 C1.01 20 0.02 20 -1 20 C-1.028 18.354 -1.047 16.708 -1.062 15.062 C-1.074 14.146 -1.086 13.229 -1.098 12.285 C-0.975 8.176 -0.454 4.086 0 0 Z " fill="#ffffff" transform="translate(849,496)"/>
<path d="M0 0 C1.65 0 3.3 0 5 0 C5.495 7.425 5.495 7.425 6 15 C5.01 15 4.02 15 3 15 C1.535 13.355 1.535 13.355 0.062 11.188 C-2.746 7.076 -5.214 4.595 -10 3 C-14.607 2.594 -18.695 2.456 -23 4.25 C-25.21 6.184 -26.213 7.166 -27 10 C-26.803 15.423 -25.646 18.062 -22 22 C-19.738 23.755 -17.356 25.283 -14.938 26.812 C-13.594 27.689 -12.252 28.566 -10.91 29.445 C-9.918 30.092 -9.918 30.092 -8.907 30.751 C7.073 41.219 7.073 41.219 10 50 C10.728 56.718 10.321 62.587 6 68 C0.009 73.392 -6.593 76.159 -14.66 75.922 C-17.453 75.686 -20.22 75.359 -23 75 C-24.833 74.807 -26.666 74.619 -28.5 74.438 C-29.691 74.312 -29.691 74.312 -30.906 74.184 C-33.148 73.956 -33.148 73.956 -36 74 C-36.339 71.959 -36.671 69.917 -37 67.875 C-37.186 66.738 -37.371 65.601 -37.562 64.43 C-37.97 61.239 -38.078 58.212 -38 55 C-37.01 55 -36.02 55 -35 55 C-34.709 55.592 -34.417 56.183 -34.117 56.793 C-30.908 62.979 -27.903 67.699 -21 70 C-13.861 70.693 -8.773 70.422 -3 66 C-0.351 62.66 -0.637 59.133 -1 55 C-4.074 47.314 -12.274 42.719 -19 38.5 C-27.79 32.976 -35.294 28.22 -37.812 17.562 C-38.095 12.188 -37.234 8.561 -33.875 4.312 C-23.695 -3.876 -12.294 -3.643 0 0 Z " fill="#ffffff" transform="translate(486,362)"/>
<path d="M0 0 C0.708 0.006 1.416 0.013 2.145 0.02 C7.247 0.094 12.2 0.503 17.25 1.188 C18.24 1.188 19.23 1.188 20.25 1.188 C20.91 6.467 21.57 11.748 22.25 17.188 C20.93 17.188 19.61 17.188 18.25 17.188 C17.012 15.578 17.012 15.578 15.938 13.438 C12.686 7.82 9.116 5.969 2.812 4.25 C-1.509 4.174 -4.997 5.013 -8.75 7.188 C-10.837 10.318 -11.382 12.275 -11.219 16.023 C-9.896 22.128 -4.768 25.584 0.184 28.855 C2.411 30.289 4.65 31.703 6.895 33.109 C22.947 43.203 22.947 43.203 25.25 51.188 C26.1 57.356 26.101 62.66 22.875 68.125 C19.141 72.879 15.104 75.639 9.25 77.188 C0.613 78.003 -7.329 77.293 -15.75 75.188 C-17.089 75.498 -18.424 75.828 -19.75 76.188 C-21.25 74.688 -21.066 73.241 -21.285 71.152 C-21.372 70.343 -21.459 69.535 -21.549 68.701 C-21.636 67.851 -21.723 67.001 -21.812 66.125 C-21.949 64.844 -21.949 64.844 -22.088 63.537 C-22.313 61.421 -22.532 59.304 -22.75 57.188 C-20.818 57.581 -20.818 57.581 -18.75 58.188 C-17.66 59.895 -17.66 59.895 -16.812 62 C-14.447 67.186 -10.969 69.976 -5.75 72.188 C1.344 73.122 6.497 72.472 12.25 68.188 C14.273 65.153 14.565 64.334 14.625 60.875 C14.668 59.767 14.668 59.767 14.711 58.637 C13.581 52.633 10.017 49.828 5.223 46.461 C3.26 45.15 1.29 43.851 -0.688 42.562 C-2.656 41.26 -4.624 39.955 -6.59 38.648 C-7.46 38.079 -8.33 37.51 -9.226 36.923 C-14.776 33.106 -19.189 29.533 -21.75 23.188 C-22.482 18.302 -22.434 13.934 -20.625 9.312 C-14.451 2.315 -9.199 -0.173 0 0 Z " fill="#ffffff" transform="translate(741.75,495.8125)"/>
<path d="M0 0 C0.893 0.162 1.787 0.325 2.707 0.492 C8.341 1.291 14.008 1.143 19.688 1.133 C21.512 1.134 21.512 1.134 23.374 1.136 C25.939 1.136 28.504 1.135 31.069 1.13 C34.986 1.125 38.903 1.13 42.82 1.137 C45.318 1.136 47.815 1.135 50.312 1.133 C51.479 1.135 52.646 1.137 53.848 1.139 C54.946 1.136 56.044 1.133 57.176 1.129 C58.134 1.129 59.092 1.128 60.079 1.127 C63.404 0.982 66.705 0.471 70 0 C70.99 9.9 70.99 9.9 72 20 C70.68 19.67 69.36 19.34 68 19 C67.023 16.75 67.023 16.75 66.375 14 C65.969 12.32 65.521 10.648 65 9 C62.483 7.742 60.587 7.792 57.773 7.684 C56.742 7.642 55.711 7.6 54.648 7.557 C53.568 7.517 52.488 7.478 51.375 7.438 C50.287 7.394 49.199 7.351 48.078 7.307 C45.386 7.2 42.693 7.098 40 7 C40.108 14.311 40.221 21.622 40.339 28.933 C40.394 32.328 40.448 35.724 40.497 39.119 C40.554 43.029 40.619 46.938 40.684 50.848 C40.7 52.058 40.717 53.269 40.734 54.516 C40.832 60.1 41.014 65.499 42 71 C45.96 71.66 49.92 72.32 54 73 C54 73.99 54 74.98 54 76 C41.46 76 28.92 76 16 76 C16 75.01 16 74.02 16 73 C16.855 72.818 17.709 72.636 18.59 72.449 C19.695 72.198 20.799 71.946 21.938 71.688 C23.04 71.444 24.142 71.2 25.277 70.949 C26.176 70.636 27.074 70.323 28 70 C29.058 66.825 29.156 64.489 29.205 61.152 C29.225 59.951 29.245 58.75 29.266 57.512 C29.282 56.215 29.299 54.918 29.316 53.582 C29.337 52.241 29.358 50.9 29.379 49.559 C29.435 46.033 29.484 42.507 29.532 38.98 C29.582 35.381 29.638 31.781 29.693 28.182 C29.801 21.121 29.902 14.061 30 7 C17.625 7.495 17.625 7.495 5 8 C4.01 11.96 3.02 15.92 2 20 C1.01 20 0.02 20 -1 20 C-1.114 13.234 -0.88 6.712 0 0 Z " fill="#ffffff" transform="translate(1,360)"/>
<path d="M0 0 C11.88 0 23.76 0 36 0 C36 0.99 36 1.98 36 3 C34.844 3.091 34.844 3.091 33.664 3.184 C32.661 3.267 31.658 3.351 30.625 3.438 C29.128 3.559 29.128 3.559 27.602 3.684 C25.021 3.85 25.021 3.85 23 5 C23 25.46 23 45.92 23 67 C26.6 68.8 30.786 68.228 34.75 68.25 C35.645 68.271 36.539 68.291 37.461 68.312 C42.732 68.344 46.502 68.05 51 65 C53.263 62.78 53.263 62.78 55.188 60.312 C57.168 57.863 57.168 57.863 59 56 C59.99 56 60.98 56 62 56 C61.71 56.859 61.42 57.719 61.121 58.604 C59.97 61.94 59.97 61.94 59.22 65.185 C57.812 68.996 56.489 71.848 53 74 C44.314 76.141 34.915 75.115 26.062 74.75 C23.541 74.69 21.02 74.635 18.498 74.586 C12.329 74.454 6.165 74.253 0 74 C0 73.01 0 72.02 0 71 C4.95 70.01 4.95 70.01 10 69 C10.023 61.116 10.041 53.231 10.052 45.347 C10.057 41.686 10.064 38.025 10.075 34.364 C10.086 30.83 10.092 27.296 10.095 23.763 C10.098 21.76 10.105 19.757 10.113 17.754 C10.113 16.533 10.113 15.312 10.114 14.054 C10.116 12.979 10.118 11.904 10.12 10.797 C10.084 7.766 10.084 7.766 9 4 C6.03 3.67 3.06 3.34 0 3 C0 2.01 0 1.02 0 0 Z " fill="#ffffff" transform="translate(348,226)"/>
<path d="M0 0 C11.88 0 23.76 0 36 0 C36 0.99 36 1.98 36 3 C29.565 3.495 29.565 3.495 23 4 C23 24.79 23 45.58 23 67 C26.61 68.805 30.838 68.185 34.812 68.188 C35.715 68.2 36.618 68.212 37.549 68.225 C44.049 68.319 44.049 68.319 50 66 C52.412 63.624 52.412 63.624 54.625 60.875 C56.914 58.117 56.914 58.117 59 56 C59.99 56 60.98 56 62 56 C60.416 61.862 57.373 69.627 53 74 C51.343 74.093 49.681 74.117 48.021 74.114 C46.96 74.113 45.899 74.113 44.806 74.113 C43.075 74.106 43.075 74.106 41.309 74.098 C39.546 74.096 39.546 74.096 37.748 74.093 C33.978 74.088 30.208 74.075 26.438 74.062 C23.889 74.057 21.34 74.053 18.791 74.049 C12.527 74.038 6.264 74.021 0 74 C0 73.01 0 72.02 0 71 C0.638 70.879 1.276 70.758 1.934 70.633 C2.76 70.465 3.586 70.298 4.438 70.125 C5.261 69.963 6.085 69.8 6.934 69.633 C7.956 69.32 7.956 69.32 9 69 C10.331 66.338 10.142 64.294 10.161 61.313 C10.176 59.526 10.176 59.526 10.19 57.702 C10.194 56.41 10.199 55.117 10.203 53.785 C10.209 52.45 10.215 51.115 10.22 49.78 C10.231 46.979 10.237 44.179 10.24 41.379 C10.246 37.79 10.27 34.201 10.298 30.612 C10.317 27.854 10.322 25.096 10.324 22.338 C10.328 20.371 10.347 18.404 10.366 16.437 C10.363 15.242 10.36 14.047 10.356 12.817 C10.36 11.763 10.364 10.71 10.367 9.625 C10.204 6.992 10.204 6.992 8.708 5.179 C6.02 3.323 3.191 3.301 0 3 C0 2.01 0 1.02 0 0 Z " fill="#ffffff" transform="translate(532,226)"/>
<path d="M0 0 C9.9 0 19.8 0 30 0 C30 1.32 30 2.64 30 4 C28.886 4.103 27.772 4.206 26.625 4.312 C25.429 4.539 24.233 4.766 23 5 C20.717 8.424 20.743 9.682 20.725 13.709 C20.716 14.88 20.706 16.052 20.696 17.258 C20.697 18.524 20.698 19.79 20.699 21.094 C20.695 22.392 20.691 23.69 20.686 25.028 C20.679 27.775 20.679 30.522 20.684 33.269 C20.69 36.79 20.673 40.31 20.65 43.831 C20.632 47.19 20.635 50.548 20.637 53.906 C20.628 55.172 20.618 56.438 20.609 57.742 C20.618 59.499 20.618 59.499 20.628 61.291 C20.627 62.323 20.626 63.356 20.626 64.42 C20.797 67.019 20.797 67.019 22.324 68.814 C24.739 70.523 27.104 70.678 30 71 C30 72.32 30 73.64 30 75 C20.1 75 10.2 75 0 75 C0 73.68 0 72.36 0 71 C1.134 70.711 2.269 70.423 3.438 70.125 C4.613 69.754 5.789 69.382 7 69 C8.32 66.36 8.142 64.361 8.161 61.405 C8.176 59.647 8.176 59.647 8.19 57.855 C8.197 55.949 8.197 55.949 8.203 54.004 C8.209 52.704 8.215 51.405 8.22 50.066 C8.231 47.313 8.237 44.56 8.24 41.806 C8.246 38.278 8.27 34.749 8.298 31.221 C8.321 27.857 8.323 24.493 8.328 21.129 C8.347 19.226 8.347 19.226 8.366 17.284 C8.363 16.11 8.36 14.935 8.356 13.725 C8.36 12.689 8.364 11.654 8.367 10.587 C8.207 7.975 8.207 7.975 6.646 6.185 C4.509 4.646 2.583 4.349 0 4 C0 2.68 0 1.36 0 0 Z " fill="#ffffff" transform="translate(373,497)"/>
<path d="M0 0 C9.9 0 19.8 0 30 0 C30 0.99 30 1.98 30 3 C28.886 3.124 27.772 3.248 26.625 3.375 C22.969 3.647 22.969 3.647 21 6 C20.693 8.656 20.693 8.656 20.741 11.795 C20.735 13.01 20.729 14.224 20.722 15.476 C20.726 16.793 20.73 18.111 20.734 19.469 C20.733 20.829 20.731 22.189 20.729 23.549 C20.726 26.4 20.73 29.252 20.739 32.103 C20.751 35.762 20.744 39.42 20.732 43.079 C20.725 45.888 20.727 48.696 20.732 51.505 C20.734 53.511 20.728 55.518 20.722 57.524 C20.728 58.739 20.735 59.954 20.741 61.205 C20.743 62.278 20.744 63.351 20.746 64.457 C20.746 67.168 20.746 67.168 23 69 C25.318 69.719 27.651 70.391 30 71 C30 71.99 30 72.98 30 74 C20.1 74 10.2 74 0 74 C0 72.68 0 71.36 0 70 C3.465 69.01 3.465 69.01 7 68 C7.965 64.757 8.127 61.83 8.129 58.453 C8.133 57.342 8.136 56.231 8.139 55.086 C8.137 53.891 8.135 52.696 8.133 51.465 C8.134 50.235 8.135 49.004 8.136 47.737 C8.136 45.137 8.135 42.537 8.13 39.937 C8.127 37.269 8.126 34.601 8.13 31.932 C8.137 28.089 8.136 24.246 8.133 20.402 C8.136 18.607 8.136 18.607 8.139 16.775 C8.134 15.113 8.134 15.113 8.129 13.418 C8.129 12.442 8.128 11.466 8.127 10.46 C8.103 7.863 8.103 7.863 7 5 C3.488 3.77 3.488 3.77 0 3 C0 2.01 0 1.02 0 0 Z " fill="#ffffff" transform="translate(390,362)"/>
<path d="M0 0 C9.57 0 19.14 0 29 0 C29 1.32 29 2.64 29 4 C26.36 4.33 23.72 4.66 21 5 C20.184 8.574 19.874 11.874 19.871 15.537 C19.867 16.622 19.864 17.706 19.861 18.824 C19.863 19.985 19.865 21.147 19.867 22.344 C19.866 23.546 19.865 24.747 19.864 25.986 C19.864 28.524 19.865 31.063 19.87 33.601 C19.875 37.485 19.87 41.37 19.863 45.254 C19.864 47.721 19.865 50.189 19.867 52.656 C19.865 53.818 19.863 54.979 19.861 56.176 C19.864 57.261 19.867 58.345 19.871 59.463 C19.871 60.414 19.872 61.365 19.873 62.344 C20 64.99 20.411 67.421 21 70 C23.64 70.33 26.28 70.66 29 71 C29 72.32 29 73.64 29 75 C19.43 75 9.86 75 0 75 C0 73.68 0 72.36 0 71 C3.465 70.505 3.465 70.505 7 70 C7.723 66.099 8.126 62.407 8.129 58.441 C8.133 57.377 8.136 56.312 8.139 55.215 C8.137 54.081 8.135 52.946 8.133 51.777 C8.134 50.599 8.135 49.421 8.136 48.207 C8.136 45.722 8.135 43.236 8.13 40.751 C8.125 36.948 8.13 33.145 8.137 29.342 C8.136 26.924 8.135 24.507 8.133 22.09 C8.135 20.953 8.137 19.817 8.139 18.646 C8.136 17.584 8.133 16.523 8.129 15.429 C8.129 14.499 8.128 13.569 8.127 12.611 C7.999 9.983 7.583 7.563 7 5 C4.69 4.67 2.38 4.34 0 4 C0 2.68 0 1.36 0 0 Z " fill="#ffffff" transform="translate(796,497)"/>
<path d="M0 0 C2.969 3.216 3.912 6.102 4.25 10.438 C3.338 14.452 1.561 16.998 -1.75 19.438 C-6.332 20.546 -8.608 20.825 -13.062 19.312 C-16.164 17.149 -17.436 15.994 -18.75 12.438 C-19.044 7.535 -18.463 4.362 -15.438 0.438 C-10.218 -3.447 -5.712 -3.245 0 0 Z M-13.25 4.625 C-14.969 7.293 -14.969 7.293 -14.688 10.062 C-13.669 12.641 -13 13.83 -10.75 15.438 C-8.393 16.526 -8.393 16.526 -5.75 16.438 C-2.799 15.077 -2.799 15.077 -0.75 12.438 C-0.259 8.936 -0.09 6.641 -1.812 3.5 C-6.072 1.164 -9.649 1.474 -13.25 4.625 Z " fill="#ffffff" transform="translate(742.75,198.5625)"/>
</svg>