
<!-- Generator: visioncortex VTracer 0.6.4 -->
<svg version="1.1" xmlns="http://www.w3.org/2000/svg" viewBox="0 0 1280 323" preserveAspectRatio="xMidYMid meet">
<path d="M0 0 C5.328 0.121 10.655 0.124 15.984 0.14 C24.913 0.184 33.838 0.304 42.765 0.479 C55.344 0.726 67.921 0.834 80.501 0.916 C90.301 0.984 100.101 1.086 109.9 1.197 C110.946 1.209 111.992 1.22 113.07 1.232 C119.082 1.302 125.094 1.391 131.106 1.505 C132.923 1.537 134.74 1.565 136.557 1.588 C139.043 1.62 141.528 1.671 144.014 1.726 C144.727 1.732 145.441 1.737 146.176 1.743 C154.233 1.969 160.453 4.519 166.162 10.228 C170.704 16.686 171.309 22.122 171.282 29.833 C171.283 31.149 171.283 31.149 171.285 32.492 C171.286 35.437 171.281 38.382 171.275 41.327 C171.275 43.436 171.275 45.545 171.276 47.654 C171.276 53.385 171.27 59.115 171.263 64.846 C171.257 70.834 171.256 76.821 171.255 82.808 C171.252 94.148 171.244 105.488 171.234 116.828 C171.223 129.737 171.217 142.646 171.212 155.555 C171.202 182.113 171.184 208.671 171.162 235.228 C163.242 235.228 155.322 235.228 147.162 235.228 C146.832 198.928 146.502 162.628 146.162 125.228 C139.562 131.828 132.962 138.428 126.162 145.228 C118.981 147 114.236 147.71 107.209 147.287 C105.485 147.257 103.762 147.236 102.038 147.222 C97.564 147.164 93.103 146.983 88.633 146.776 C84.984 146.628 81.335 146.567 77.684 146.511 C70.122 146.393 62.56 146.219 55.005 145.886 C54.326 145.865 53.648 145.845 52.949 145.823 C46.452 145.492 39.971 143.791 35.349 138.978 C34.807 138.437 34.264 137.895 33.705 137.337 C29.131 131.084 28.735 125.489 28.821 117.978 C28.821 116.973 28.82 115.967 28.82 114.931 C28.822 111.625 28.845 108.319 28.869 105.013 C28.874 102.714 28.879 100.415 28.882 98.115 C28.893 92.077 28.923 86.039 28.956 80.001 C28.987 73.834 29 67.667 29.015 61.5 C29.048 49.409 29.1 37.319 29.162 25.228 C21.902 25.228 14.642 25.228 7.162 25.228 C7.225 38.32 7.3 51.412 7.398 64.504 C7.442 70.584 7.481 76.664 7.508 82.744 C7.534 88.618 7.575 94.493 7.625 100.367 C7.642 102.601 7.653 104.835 7.659 107.069 C7.714 124.749 8.3 139.624 20.662 153.416 C33.102 165.097 48.523 166.466 64.806 166.642 C66.51 166.671 66.51 166.671 68.248 166.701 C71.824 166.76 75.399 166.807 78.974 166.853 C81.42 166.891 83.866 166.93 86.312 166.97 C92.262 167.066 98.212 167.151 104.162 167.228 C103.761 167.685 103.36 168.142 102.947 168.612 C100.202 171.772 97.629 174.874 95.377 178.412 C91.393 183.866 87.059 189.096 80.186 190.685 C74.653 191.5 69.118 191.525 63.537 191.416 C62.739 191.401 61.942 191.386 61.121 191.37 C37.594 190.734 16.442 184.67 -0.26 167.252 C-16.338 148.396 -17.147 128.099 -17.033 104.525 C-17.03 102.233 -17.027 99.941 -17.025 97.649 C-17.017 91.651 -16.998 85.654 -16.975 79.657 C-16.955 73.523 -16.946 67.389 -16.936 61.255 C-16.914 49.246 -16.879 37.237 -16.838 25.228 C-24.098 25.228 -31.358 25.228 -38.838 25.228 C-38.752 38.286 -38.658 51.343 -38.551 64.4 C-38.501 70.464 -38.455 76.529 -38.416 82.593 C-38.379 88.454 -38.333 94.316 -38.28 100.177 C-38.262 102.404 -38.247 104.631 -38.235 106.858 C-38.08 135.226 -34.412 161.609 -13.573 182.556 C-12.219 183.879 -12.219 183.879 -10.838 185.228 C-10.06 186.027 -9.281 186.827 -8.479 187.65 C2.301 198.141 15.815 204.283 30.162 208.228 C30.984 208.461 31.807 208.695 32.654 208.935 C41.255 211.004 50.36 210.885 59.162 211.228 C56.721 216.75 52.442 220.76 48.349 225.103 C47.561 226.008 46.773 226.913 45.961 227.845 C39.979 234.118 39.979 234.118 34.9 234.425 C31.539 233.935 28.416 233.193 25.162 232.228 C24.411 232.05 23.66 231.871 22.887 231.688 C2.618 226.785 -15.005 215.541 -29.838 201.228 C-30.57 200.559 -31.303 199.89 -32.057 199.201 C-50.785 181.624 -61.432 154.206 -62.32 128.858 C-62.359 127.368 -62.359 127.368 -62.398 125.848 C-62.432 124.768 -62.466 123.688 -62.502 122.576 C-62.795 112.66 -62.962 102.741 -63.09 92.821 C-63.177 86.182 -63.305 79.55 -63.532 72.914 C-63.752 66.456 -63.866 60.003 -63.908 53.541 C-63.942 51.101 -64.011 48.662 -64.12 46.225 C-64.695 32.637 -63.168 21.743 -53.955 11.2 C-39.372 -3.004 -18.939 -0.51 0 0 Z M53.162 25.228 C53.162 57.238 53.162 89.248 53.162 122.228 C84.182 122.228 115.202 122.228 147.162 122.228 C147.162 90.218 147.162 58.208 147.162 25.228 C116.142 25.228 85.122 25.228 53.162 25.228 Z " fill="#559BBD" transform="translate(61.83813500404358,86.77193260192871)"/>
<path d="M0 0 C2.528 0.025 5.056 0.043 7.584 0.053 C12.854 0.092 18.12 0.189 23.388 0.343 C30.088 0.538 36.785 0.629 43.488 0.683 C49.951 0.738 56.413 0.833 62.875 0.938 C64.08 0.956 65.285 0.974 66.527 0.992 C102.234 1.626 132.479 11.121 158.438 36.996 C176.861 56.73 188.651 82.954 188.558 110.184 C188.559 111.557 188.559 111.557 188.56 112.959 C188.562 116.022 188.556 119.085 188.551 122.148 C188.551 124.346 188.551 126.544 188.551 128.742 C188.552 134.706 188.546 140.67 188.539 146.635 C188.533 152.869 188.532 159.103 188.531 165.337 C188.528 175.799 188.522 186.262 188.513 196.725 C188.504 207.5 188.497 218.275 188.492 229.05 C188.492 229.714 188.492 230.379 188.492 231.064 C188.49 234.397 188.489 237.731 188.488 241.065 C188.477 268.709 188.46 296.352 188.438 323.996 C180.518 323.996 172.597 323.996 164.438 323.996 C164.432 321.258 164.426 318.521 164.42 315.7 C164.363 289.892 164.29 264.085 164.202 238.277 C164.157 225.009 164.117 211.741 164.091 198.474 C164.068 186.906 164.035 175.338 163.989 163.77 C163.965 157.648 163.946 151.526 163.94 145.405 C163.934 139.634 163.914 133.864 163.883 128.094 C163.874 125.985 163.871 123.875 163.872 121.765 C163.888 94.095 156.844 70.897 137.098 50.59 C113.811 28.548 86.448 25.38 55.958 25.389 C52.306 25.385 48.655 25.36 45.003 25.337 C38.119 25.296 31.235 25.276 24.351 25.263 C16.5 25.247 8.65 25.208 0.8 25.168 C-15.321 25.086 -31.442 25.032 -47.562 24.996 C-37.948 3.964 -21.202 -0.784 0 0 Z " fill="#559BBD" transform="translate(135.5625,-1.99609375)"/>
<path d="M0 0 C4.044 0.116 8.088 0.117 12.133 0.132 C18.916 0.173 25.695 0.287 32.476 0.453 C41.989 0.687 51.501 0.789 61.017 0.865 C68.471 0.928 75.925 1.025 83.379 1.131 C84.166 1.142 84.953 1.153 85.764 1.164 C90.318 1.23 94.87 1.314 99.422 1.421 C101.432 1.467 103.442 1.499 105.453 1.531 C123.661 2.017 141.109 5.538 155.614 17.127 C156.373 17.711 157.132 18.295 157.914 18.896 C170.244 29.011 177.924 43.511 180.614 59.127 C180.868 62.289 180.876 65.428 180.854 68.599 C180.856 69.509 180.857 70.419 180.859 71.357 C180.862 74.383 180.852 77.409 180.841 80.436 C180.84 82.614 180.84 84.793 180.841 86.971 C180.842 92.87 180.83 98.767 180.816 104.666 C180.804 110.835 180.803 117.005 180.8 123.175 C180.794 134.852 180.778 146.528 180.758 158.204 C180.735 171.501 180.724 184.797 180.714 198.093 C180.693 225.438 180.658 252.782 180.614 280.127 C172.694 280.127 164.774 280.127 156.614 280.127 C156.612 277.412 156.611 274.697 156.609 271.9 C156.593 246.313 156.55 220.725 156.481 195.138 C156.447 181.983 156.421 168.829 156.418 155.674 C156.415 144.205 156.394 132.737 156.353 121.268 C156.332 115.198 156.319 109.129 156.327 103.059 C156.335 97.339 156.319 91.619 156.285 85.899 C156.277 83.807 156.277 81.714 156.287 79.622 C156.351 64.019 155.069 50.917 143.614 39.127 C135.228 31.346 124.884 27.026 113.527 26.968 C112.456 26.961 112.456 26.961 111.363 26.953 C108.971 26.938 106.579 26.93 104.187 26.921 C102.472 26.912 100.757 26.902 99.042 26.891 C94.386 26.864 89.729 26.843 85.072 26.823 C80.206 26.801 75.34 26.774 70.474 26.747 C61.259 26.697 52.044 26.652 42.829 26.609 C32.338 26.56 21.847 26.505 11.356 26.45 C-10.225 26.336 -31.805 26.229 -53.386 26.127 C-42.417 2.384 -23.265 -0.788 0 0 Z " fill="#559BBD" transform="translate(97.38647937774658,41.873326539993286)"/>
<path d="M0 0 C79.157 0 79.157 0 100 17 C100.632 17.458 101.263 17.915 101.914 18.387 C114.118 27.665 120.687 43.671 123.496 58.23 C126.075 77.522 122.603 96.882 110.797 112.699 C109.907 113.838 109.907 113.838 109 115 C108.234 116.031 108.234 116.031 107.453 117.082 C95.719 131.807 77.052 138.421 59 141 C39.53 141 20.06 141 0 141 C0 94.47 0 47.94 0 0 Z M20 19 C20 52.99 20 86.98 20 122 C58.463 123.626 58.463 123.626 89.742 106.488 C100.766 94.339 103.726 81.015 103.132 65.01 C102.315 52.559 96.246 40.36 87 32 C66.485 16.598 46.145 19 20 19 Z " fill="#559BBD" transform="translate(1082,45)"/>
<path d="M0 0 C33.99 0 67.98 0 103 0 C103 6.27 103 12.54 103 19 C75.61 19 48.22 19 20 19 C20 32.86 20 46.72 20 61 C44.42 61 68.84 61 94 61 C94 66.94 94 72.88 94 79 C69.58 79 45.16 79 20 79 C20 93.19 20 107.38 20 122 C47.72 122 75.44 122 104 122 C104 128.27 104 134.54 104 141 C69.68 141 35.36 141 0 141 C0 94.47 0 47.94 0 0 Z " fill="#569BBD" transform="translate(955,45)"/>
<path d="M0 0 C0.749 0.005 1.498 0.01 2.269 0.016 C3.078 0.019 3.887 0.022 4.72 0.026 C5.571 0.034 6.421 0.042 7.297 0.051 C8.151 0.056 9.005 0.06 9.885 0.065 C12.001 0.077 14.118 0.094 16.234 0.114 C24.299 17.65 32.308 35.208 40.109 52.864 C45.76 65.649 51.545 78.368 57.422 91.051 C68.061 114.027 68.061 114.027 72.998 124.96 C73.566 126.216 74.137 127.472 74.709 128.727 C75.486 130.431 76.255 132.14 77.023 133.848 C77.453 134.799 77.883 135.75 78.326 136.73 C79.234 139.114 79.234 139.114 79.234 142.114 C71.974 142.114 64.714 142.114 57.234 142.114 C55.094 137.309 52.957 132.505 50.825 127.697 C50.099 126.061 49.372 124.426 48.643 122.791 C47.597 120.444 46.556 118.095 45.515 115.746 C45.023 114.646 45.023 114.646 44.521 113.524 C42.234 108.341 42.234 108.341 42.234 106.114 C18.804 106.114 -4.626 106.114 -28.766 106.114 C-29.426 108.094 -30.086 110.074 -30.766 112.114 C-31.741 114.423 -32.744 116.721 -33.77 119.008 C-34.053 119.641 -34.336 120.274 -34.628 120.926 C-35.223 122.252 -35.819 123.577 -36.416 124.901 C-37.333 126.936 -38.244 128.973 -39.155 131.01 C-39.734 132.301 -40.314 133.592 -40.895 134.883 C-41.685 136.64 -41.685 136.64 -42.491 138.433 C-43.766 141.114 -43.766 141.114 -44.766 142.114 C-46.328 142.2 -47.893 142.221 -49.457 142.211 C-50.402 142.208 -51.346 142.205 -52.319 142.201 C-53.312 142.193 -54.305 142.185 -55.328 142.176 C-56.325 142.172 -57.323 142.167 -58.35 142.162 C-60.822 142.151 -63.294 142.133 -65.766 142.114 C-63.91 136.194 -61.749 130.575 -59.098 124.969 C-58.571 123.837 -58.571 123.837 -58.033 122.683 C-57.278 121.064 -56.522 119.446 -55.763 117.829 C-53.717 113.464 -51.688 109.092 -49.66 104.719 C-49.247 103.827 -48.833 102.935 -48.406 102.016 C-44.429 93.424 -40.585 84.776 -36.766 76.114 C-30.353 61.579 -23.751 47.137 -17.055 32.731 C-16.344 31.2 -15.633 29.668 -14.922 28.137 C-14.408 27.031 -14.408 27.031 -13.884 25.902 C-10.933 19.524 -8.079 13.106 -5.266 6.666 C-2.404 0.155 -2.404 0.155 0 0 Z M6.234 27.114 C3.655 32.801 1.077 38.49 -1.499 44.179 C-2.372 46.107 -3.246 48.035 -4.12 49.962 C-8.407 59.415 -12.688 68.871 -16.887 78.364 C-17.183 79.025 -17.478 79.687 -17.783 80.368 C-19.282 83.618 -19.282 83.618 -19.766 87.114 C-2.276 87.114 15.214 87.114 33.234 87.114 C30.952 80.1 30.952 80.1 28.213 73.379 C27.846 72.568 27.478 71.757 27.1 70.921 C26.712 70.077 26.325 69.233 25.926 68.364 C25.518 67.465 25.11 66.567 24.689 65.642 C23.396 62.797 22.096 59.955 20.797 57.114 C19.928 55.207 19.061 53.301 18.193 51.395 C16.966 48.698 15.738 46.001 14.507 43.306 C12.049 37.923 9.627 32.526 7.234 27.114 C6.904 27.114 6.574 27.114 6.234 27.114 Z " fill="#559BBE" transform="translate(455.765869140625,43.886474609375)"/>
<path d="M0 0 C79.914 0 79.914 0 95.723 14.59 C104.922 24.589 107.692 36.682 107.305 49.898 C106.619 62.046 101.444 72.128 92.492 80.285 C80.52 89.622 66.257 93.384 51.273 93.195 C50.497 93.193 49.721 93.191 48.921 93.189 C46.072 93.179 43.224 93.151 40.375 93.125 C30.784 93.063 30.784 93.063 21 93 C21 108.84 21 124.68 21 141 C14.07 141 7.14 141 0 141 C0 94.47 0 47.94 0 0 Z M21 19 C21 37.15 21 55.3 21 74 C30.343 74.093 30.343 74.093 39.875 74.188 C41.82 74.215 43.765 74.242 45.769 74.27 C58.495 74.375 70.125 73.63 79.758 64.297 C85.01 58.461 86.872 52.821 87 45 C86.323 37.613 83.615 31.335 78.129 26.273 C66.666 17.734 52.262 18.608 38.688 18.812 C32.851 18.874 27.014 18.936 21 19 Z " fill="#559BBD" transform="translate(552,45)"/>
<path d="M0 0 C79.737 0 79.737 0 95.062 14.312 C99.108 18.719 101.805 23.456 104 29 C104.365 29.88 104.73 30.761 105.105 31.668 C108.11 42.861 107.428 57.736 102 68 C99.938 71.304 97.662 74.162 95 77 C94.415 77.626 93.83 78.253 93.227 78.898 C78.499 93.129 58.282 93.454 39.125 93.188 C32.814 93.126 26.503 93.064 20 93 C20 108.84 20 124.68 20 141 C13.4 141 6.8 141 0 141 C0 94.47 0 47.94 0 0 Z M20 19 C20 37.15 20 55.3 20 74 C29.529 74.124 29.529 74.124 39.25 74.25 C41.229 74.286 43.208 74.323 45.247 74.36 C58.235 74.5 70.193 73.523 80 64 C85.635 56.882 86.942 49.889 86 41 C84.238 33.328 80.602 28.258 74 24 C65.645 19.711 57.486 18.84 48.223 18.902 C47.502 18.903 46.782 18.904 46.04 18.905 C43.381 18.911 40.722 18.925 38.062 18.938 C29.122 18.968 29.122 18.968 20 19 Z " fill="#559BBD" transform="translate(678,45)"/>
<path d="M0 0 C16 0 16 0 20.399 3.82 C21.567 5.551 22.675 7.323 23.73 9.125 C24.34 10.06 24.949 10.996 25.576 11.96 C27.501 14.942 29.344 17.967 31.188 21 C32.464 23.007 33.746 25.011 35.033 27.012 C37.396 30.704 39.73 34.41 42.024 38.145 C42.777 39.37 42.777 39.37 43.545 40.62 C44.512 42.202 45.474 43.787 46.43 45.376 C46.871 46.102 47.312 46.827 47.767 47.574 C48.151 48.213 48.535 48.852 48.931 49.51 C49.944 51.166 49.944 51.166 52 52 C52.271 51.267 52.543 50.534 52.822 49.778 C53.952 47.113 55.222 44.94 56.842 42.549 C57.412 41.701 57.983 40.853 58.571 39.98 C59.493 38.627 59.493 38.627 60.434 37.246 C61.384 35.839 61.384 35.839 62.354 34.404 C64.377 31.412 66.408 28.425 68.438 25.438 C69.801 23.423 71.163 21.408 72.525 19.393 C75.024 15.701 77.523 12.009 80.029 8.322 C80.532 7.582 81.034 6.842 81.552 6.08 C82.987 4.019 84.493 2.009 86 0 C91.28 0 96.56 0 102 0 C102 34.98 102 69.96 102 106 C96.72 106 91.44 106 86 106 C85.67 81.25 85.34 56.5 85 31 C79.39 39.25 73.78 47.5 68 56 C65.147 60.188 62.294 64.376 59.438 68.562 C58.799 69.499 58.16 70.436 57.502 71.4 C56.001 73.6 54.501 75.8 53 78 C49.172 77.464 48.267 77.305 45.605 74.262 C44.784 73.081 43.979 71.888 43.188 70.688 C42.752 70.052 42.316 69.416 41.866 68.76 C40.562 66.85 39.279 64.927 38 63 C37.025 61.55 37.025 61.55 36.031 60.07 C34.013 57.052 32.007 54.026 30 51 C25.71 44.73 21.42 38.46 17 32 C16.67 56.42 16.34 80.84 16 106 C10.72 106 5.44 106 0 106 C0 71.02 0 36.04 0 0 Z " fill="#559BBD" transform="translate(398,216)"/>
<path d="M0 0 C13.736 -0.124 13.736 -0.124 27.75 -0.25 C30.617 -0.286 33.483 -0.323 36.437 -0.36 C38.744 -0.372 41.052 -0.382 43.359 -0.391 C44.529 -0.411 45.698 -0.432 46.903 -0.453 C58.357 -0.457 68.461 2.077 77 10 C83.665 16.665 85.159 23.218 85.438 32.438 C85.215 41.345 83.451 47.695 77.375 54.312 C72.664 58.67 66.6 63 60 63 C62.165 65.897 64.332 68.792 66.5 71.688 C67.163 72.574 67.827 73.461 68.51 74.375 C72.164 79.25 75.841 84.106 79.559 88.934 C80.291 89.886 81.023 90.838 81.777 91.82 C83.204 93.673 84.635 95.523 86.07 97.37 C86.716 98.209 87.362 99.049 88.027 99.914 C88.89 101.027 88.89 101.027 89.769 102.163 C91 104 91 104 91 106 C73.714 107.782 73.714 107.782 68.02 104.043 C65.698 101.154 63.856 98.207 62 95 C60.81 93.269 59.579 91.573 58.34 89.876 C57.064 88.127 55.818 86.359 54.574 84.586 C51.541 80.31 48.317 76.183 45.047 72.086 C42 68.213 42 68.213 42 66 C33.42 66 24.84 66 16 66 C16 79.2 16 92.4 16 106 C10.72 106 5.44 106 0 106 C0 71.02 0 36.04 0 0 Z M16 15 C16 26.88 16 38.76 16 51 C21.734 51.082 27.467 51.165 33.375 51.25 C35.163 51.286 36.952 51.323 38.794 51.36 C52.086 51.597 52.086 51.597 63.626 45.587 C66.859 41.999 68.966 38.54 69.031 33.676 C68.699 28.127 67.896 24.196 64 20 C57.376 15.77 51.509 14.85 43.734 14.902 C42.679 14.904 42.679 14.904 41.602 14.905 C38.985 14.911 36.367 14.925 33.75 14.938 C24.964 14.968 24.964 14.968 16 15 Z " fill="#559BBE" transform="translate(802,216)"/>
<path d="M0 0 C25.74 0 51.48 0 78 0 C78 4.95 78 9.9 78 15 C57.54 15 37.08 15 16 15 C16 24.9 16 34.8 16 45 C34.48 45 52.96 45 72 45 C72 49.95 72 54.9 72 60 C53.52 60 35.04 60 16 60 C16 70.23 16 80.46 16 91 C36.79 91 57.58 91 79 91 C79 95.95 79 100.9 79 106 C52.93 106 26.86 106 0 106 C0 71.02 0 36.04 0 0 Z " fill="#569BBE" transform="translate(705,216)"/>
<path d="M0 0 C4.95 0 9.9 0 15 0 C20.826 11.31 26.11 22.802 31.283 34.424 C31.571 35.072 31.859 35.719 32.156 36.387 C32.453 37.053 32.749 37.719 33.054 38.405 C37.659 48.741 42.346 59.041 47.018 69.347 C49.309 74.4 51.597 79.455 53.878 84.512 C54.643 86.209 55.41 87.905 56.177 89.601 C57.313 92.114 58.444 94.629 59.574 97.145 C60.093 98.29 60.093 98.29 60.623 99.458 C63 104.771 63 104.771 63 107 C57.06 107 51.12 107 45 107 C43.162 102.877 41.33 98.752 39.5 94.625 C38.975 93.449 38.451 92.274 37.91 91.062 C37.414 89.941 36.918 88.82 36.406 87.664 C35.945 86.627 35.485 85.59 35.01 84.522 C34 82 34 82 34 80 C16.84 80.33 -0.32 80.66 -18 81 C-21.96 89.58 -25.92 98.16 -30 107 C-35.61 107 -41.22 107 -47 107 C-46.121 102.604 -44.842 99.115 -42.965 95.121 C-42.655 94.45 -42.345 93.778 -42.025 93.086 C-41.353 91.631 -40.679 90.178 -40.002 88.725 C-38.168 84.784 -36.352 80.835 -34.535 76.887 C-34.159 76.069 -33.782 75.252 -33.394 74.41 C-29.476 65.891 -25.668 57.325 -21.875 48.75 C-20.56 45.781 -19.245 42.812 -17.93 39.844 C-17.607 39.117 -17.285 38.389 -16.953 37.64 C-13.338 29.494 -9.673 21.37 -6 13.25 C-5.692 12.569 -5.384 11.888 -5.067 11.187 C-3.379 7.457 -1.69 3.729 0 0 Z M7 22 C4.752 26.996 2.51 31.995 0.274 36.996 C-0.487 38.695 -1.249 40.394 -2.013 42.091 C-3.115 44.539 -4.21 46.99 -5.305 49.441 C-5.814 50.568 -5.814 50.568 -6.334 51.718 C-6.654 52.438 -6.974 53.159 -7.304 53.901 C-7.584 54.525 -7.864 55.149 -8.152 55.792 C-9.304 58.791 -10.117 61.911 -11 65 C1.54 65 14.08 65 27 65 C20.871 50.567 14.549 36.247 8 22 C7.67 22 7.34 22 7 22 Z " fill="#559BBD" transform="translate(560,215)"/>
<path d="M0 0 C1.395 0.007 2.789 0.019 4.184 0.035 C5.25 0.042 5.25 0.042 6.338 0.049 C8.099 0.061 9.86 0.079 11.621 0.098 C11.915 0.756 12.21 1.415 12.513 2.093 C19.237 17.132 25.993 32.155 32.782 47.164 C33.592 48.954 34.402 50.745 35.211 52.536 C39.507 62.04 43.816 71.538 48.172 81.016 C49.219 83.299 50.265 85.583 51.312 87.866 C52.288 89.991 53.271 92.113 54.253 94.235 C54.839 95.511 55.423 96.787 56.008 98.062 C56.515 99.162 57.023 100.261 57.546 101.394 C58.621 104.098 58.621 104.098 58.621 107.098 C53.011 107.098 47.401 107.098 41.621 107.098 C29.621 83.298 29.621 83.298 29.621 80.098 C12.461 80.428 -4.699 80.758 -22.379 81.098 C-25.957 89.279 -25.957 89.279 -29.529 97.463 C-29.973 98.475 -30.417 99.488 -30.875 100.531 C-31.331 101.573 -31.786 102.616 -32.256 103.689 C-33.379 106.098 -33.379 106.098 -34.379 107.098 C-37.242 107.171 -40.08 107.19 -42.941 107.16 C-43.748 107.156 -44.554 107.151 -45.385 107.146 C-47.383 107.135 -49.381 107.117 -51.379 107.098 C-48.966 98.933 -45.395 91.357 -41.802 83.664 C-39.883 79.553 -37.98 75.435 -36.078 71.316 C-35.491 70.047 -35.491 70.047 -34.893 68.752 C-30.842 59.968 -26.915 51.132 -23.004 42.285 C-18.366 31.804 -13.708 21.334 -8.941 10.91 C-8.487 9.912 -8.032 8.914 -7.563 7.885 C-7.153 6.993 -6.743 6.1 -6.32 5.18 C-5.967 4.409 -5.613 3.637 -5.248 2.843 C-3.738 -0.188 -3.737 0.108 0 0 Z M2.621 23.098 C0.053 28.756 -2.511 34.416 -5.069 40.078 C-5.941 42.005 -6.814 43.931 -7.688 45.857 C-8.943 48.62 -10.193 51.386 -11.441 54.152 C-11.835 55.017 -12.229 55.882 -12.635 56.772 C-12.995 57.573 -13.355 58.374 -13.727 59.199 C-14.046 59.905 -14.366 60.611 -14.696 61.339 C-15.5 63.094 -15.5 63.094 -15.379 65.098 C-2.839 65.098 9.701 65.098 22.621 65.098 C20.93 60.013 20.93 60.013 18.925 55.112 C18.445 54.031 18.445 54.031 17.955 52.929 C17.615 52.173 17.276 51.416 16.926 50.637 C16.573 49.846 16.221 49.056 15.858 48.241 C14.74 45.734 13.618 43.228 12.496 40.723 C11.734 39.016 10.972 37.309 10.211 35.602 C8.351 31.432 6.487 27.265 4.621 23.098 C3.961 23.098 3.301 23.098 2.621 23.098 Z " fill="#559BBE" transform="translate(988.37890625,214.90234375)"/>
<path d="M0 0 C0.539 0.423 1.078 0.846 1.633 1.281 C1.1 5.506 -0.244 7.822 -2.93 11.094 C-3.57 11.884 -4.211 12.674 -4.871 13.488 C-5.365 14.08 -5.859 14.672 -6.367 15.281 C-9.894 13.979 -12.856 12.405 -15.992 10.344 C-24.1 5.409 -33.244 2.732 -42.684 4.785 C-47.701 6.232 -51.298 7.87 -54.367 12.281 C-55.764 16.752 -55.789 20.127 -54.18 24.531 C-47.333 31.226 -37.365 32.868 -28.367 35.219 C-4.977 41.381 -4.977 41.381 1.633 52.281 C5.478 60.967 5.626 68.886 2.664 77.828 C-0.941 86.405 -7.297 91.286 -15.465 95.316 C-27.11 99.732 -43.937 98.799 -55.367 94.281 C-63.45 90.575 -70.598 86.036 -77.367 80.281 C-76.05 76.483 -74.451 73.928 -71.742 70.969 C-71.111 70.271 -70.479 69.574 -69.828 68.855 C-69.346 68.336 -68.864 67.816 -68.367 67.281 C-64.687 68.579 -62.13 70.121 -59.18 72.656 C-49.332 80.561 -38.679 82.052 -26.367 81.281 C-21.413 80.251 -17.532 78.332 -14.367 74.281 C-13.009 70.206 -12.729 66.538 -13.367 62.281 C-19.68 53.117 -33.623 51.497 -43.686 49.102 C-54.482 46.369 -64.126 41.927 -70.367 32.281 C-73.629 24.357 -73.697 14.996 -70.867 6.906 C-67.142 -1.068 -60.584 -6.734 -52.367 -9.719 C-34.585 -15.727 -14.796 -10.743 0 0 Z " fill="#559BBD" transform="translate(1202.3671875,225.71875)"/>
<path d="M0 0 C6.6 0 13.2 0 20 0 C20 40.26 20 80.52 20 122 C40.13 122 60.26 122 81 122 C81 128.27 81 134.54 81 141 C54.27 141 27.54 141 0 141 C0 94.47 0 47.94 0 0 Z " fill="#569BBD" transform="translate(803,45)"/>
<path d="M0 0 C6.93 0 13.86 0 21 0 C21 46.53 21 93.06 21 141 C14.07 141 7.14 141 0 141 C0 94.47 0 47.94 0 0 Z " fill="#559BBD" transform="translate(905,45)"/>
<path d="M0 0 C27.72 0 55.44 0 84 0 C84 4.95 84 9.9 84 15 C72.78 15 61.56 15 50 15 C50 45.03 50 75.06 50 106 C44.72 106 39.44 106 34 106 C34 75.97 34 45.94 34 15 C22.78 15 11.56 15 0 15 C0 10.05 0 5.1 0 0 Z " fill="#569BBD" transform="translate(606,216)"/>
<path d="M0 0 C5.28 0 10.56 0 16 0 C16 29.7 16 59.4 16 90 C29.2 90 42.4 90 56 90 C56 95.28 56 100.56 56 106 C37.52 106 19.04 106 0 106 C0 71.02 0 36.04 0 0 Z " fill="#559BBE" transform="translate(1060,216)"/>
<path d="M0 0 C5.61 0 11.22 0 17 0 C17 34.98 17 69.96 17 106 C11.39 106 5.78 106 0 106 C0 71.02 0 36.04 0 0 Z " fill="#559BBD" transform="translate(907,216)"/>
<path d="M0 0 C4.358 3.584 7.034 7.977 8.812 13.312 C9.627 22.262 9.422 29.977 3.812 37.312 C-1.789 42.733 -7.522 45.587 -15.375 45.75 C-23.584 45.601 -29.887 43.06 -35.625 37.125 C-40.589 30.595 -41.945 23.086 -40.887 15.055 C-39.098 8.041 -35.152 2.039 -28.965 -1.793 C-18.741 -6.939 -9.621 -5.094 0 0 Z M-33.188 6.312 C-37.745 12.399 -38.153 18.923 -37.188 26.312 C-35.422 32.56 -31.52 36.757 -26.188 40.312 C-20.524 43.021 -14.561 43.406 -8.598 41.473 C-2.486 38.743 1.62 35.239 4.812 29.312 C6.896 22.828 6.609 16.282 3.875 10.062 C0.755 4.401 -4.058 0.58 -10.262 -1.324 C-19.313 -3.032 -26.84 -0.179 -33.188 6.312 Z " fill="#559CBE" transform="translate(1271.1875,277.6875)"/>
<path d="M0 0 C2.207 -0.041 4.414 -0.082 6.688 -0.125 C8.55 -0.16 8.55 -0.16 10.449 -0.195 C14.57 0.031 17.385 0.942 20.812 3.188 C22.794 6.211 22.484 8.492 22 12 C19.5 14.938 19.5 14.938 17 17 C17.433 17.482 17.866 17.964 18.312 18.461 C18.869 19.093 19.426 19.724 20 20.375 C20.557 21.001 21.114 21.628 21.688 22.273 C23 24 23 24 23 26 C20.375 26.5 20.375 26.5 17 26 C15.306 24.058 13.952 21.99 12.523 19.848 C11.009 17.661 11.009 17.661 7.625 17 C6.759 17 5.892 17 5 17 C5 19.97 5 22.94 5 26 C3.35 26 1.7 26 0 26 C0 17.42 0 8.84 0 0 Z M5 5 C5 7.64 5 10.28 5 13 C11.313 13.376 11.313 13.376 17 11 C16.621 7.709 16.621 7.709 15 5 C13.314 4.928 11.625 4.916 9.938 4.938 C9.018 4.947 8.099 4.956 7.152 4.965 C6.442 4.976 5.732 4.988 5 5 Z " fill="#559BBE" transform="translate(1245,284)"/>
</svg>